<svg xmlns="http://www.w3.org/2000/svg" viewBox="0 0 900 600">
    <!-- 背景 -->
    <rect width="900" height="600" fill="white"/>
    
    <!-- 标题 -->
    <text x="450" y="40" text-anchor="middle" font-size="24" font-weight="bold">Cache直接映射的写入策略</text>

    <!-- 写直达（Write Through） -->
    <g transform="translate(50,80)">
        <text x="130" y="30" font-size="18" font-weight="bold">写直达(Write Through)</text>
        <!-- CPU -->
        <rect x="80" y="60" width="100" height="50" fill="#FFE4B5" stroke="black"/>
        <text x="130" y="90" text-anchor="middle">CPU</text>
        <!-- Cache -->
        <rect x="80" y="160" width="100" height="50" fill="#E6F3FF" stroke="black"/>
        <text x="130" y="190" text-anchor="middle">Cache</text>
        <!-- 主存 -->
        <rect x="80" y="260" width="100" height="50" fill="#F0F0F0" stroke="black"/>
        <text x="130" y="290" text-anchor="middle">主存</text>
        <!-- 箭头和说明 -->
        <path d="M130,110 L130,160" fill="none" stroke="red" stroke-width="2" marker-end="url(#arrowhead)"/>
        <text x="160" y="135" fill="red">写入</text>
        <path d="M130,110 C180,110 180,285 130,285" fill="none" stroke="red" stroke-width="2" marker-end="url(#arrowhead)"/>
        <text x="190" y="200" fill="red">同时写入</text>
    </g>

    <!-- 写缓冲（Write Buffer） -->
    <g transform="translate(320,80)">
        <text x="130" y="30" font-size="18" font-weight="bold">写缓冲(Write Buffer)</text>
        <!-- CPU -->
        <rect x="80" y="60" width="100" height="50" fill="#FFE4B5" stroke="black"/>
        <text x="130" y="90" text-anchor="middle">CPU</text>
        <!-- Cache -->
        <rect x="80" y="160" width="100" height="50" fill="#E6F3FF" stroke="black"/>
        <text x="130" y="190" text-anchor="middle">Cache</text>
        <!-- 写缓冲 -->
        <rect x="220" y="160" width="80" height="50" fill="#FFA07A" stroke="black"/>
        <text x="260" y="190" text-anchor="middle">写缓冲</text>
        <!-- 主存 -->
        <rect x="80" y="260" width="100" height="50" fill="#F0F0F0" stroke="black"/>
        <text x="130" y="290" text-anchor="middle">主存</text>
        <!-- 箭头和说明 -->
        <path d="M130,110 L130,160" fill="none" stroke="red" stroke-width="2" marker-end="url(#arrowhead)"/>
        <text x="150" y="135" fill="red">1.写入</text>
        <path d="M180,185 L220,185" fill="none" stroke="red" stroke-width="2" marker-end="url(#arrowhead)"/>
        <text x="180" y="160" fill="red">2.缓存</text>
        <path d="M260,210 L260,285 L180,285" fill="none" stroke="red" stroke-width="2" marker-end="url(#arrowhead)"/>
        <text x="270" y="250" fill="red">3.后台写入</text>
    </g>

    <!-- 写回（Write Back） -->
    <g transform="translate(590,80)">
        <text x="130" y="30" font-size="18" font-weight="bold">写回(Write Back)</text>
        <!-- CPU -->
        <rect x="80" y="60" width="100" height="50" fill="#FFE4B5" stroke="black"/>
        <text x="130" y="90" text-anchor="middle">CPU</text>
        <!-- Cache -->
        <rect x="80" y="160" width="100" height="50" fill="#E6F3FF" stroke="black"/>
        <text x="130" y="190" text-anchor="middle">Cache</text>
        <!-- Dirty Bit -->
        <rect x="180" y="160" width="30" height="50" fill="#FFA07A" stroke="black"/>
        <text x="195" y="190" text-anchor="middle" font-size="12">D</text>
        <!-- 主存 -->
        <rect x="80" y="260" width="100" height="50" fill="#F0F0F0" stroke="black"/>
        <text x="130" y="290" text-anchor="middle">主存</text>
        <!-- 箭头和说明 -->
        <path d="M130,110 L130,160" fill="none" stroke="red" stroke-width="2" marker-end="url(#arrowhead)"/>
        <text x="150" y="135" fill="red">1.写入</text>
        <text x="220" y="190" fill="red">2.标记脏位</text>
        <path d="M130,210 L130,260" fill="none" stroke="blue" stroke-width="2" stroke-dasharray="5,5" marker-end="url(#arrowhead)"/>
        <text x="160" y="240" fill="blue">3.替换时写回</text>
    </g>

    <!-- 水印 -->
    <g transform="translate(450,300) rotate(-30)">
        <text x="0" y="0" 
              text-anchor="middle" 
              font-size="48" 
              fill="rgba(128,128,128,0.2)" 
              font-weight="bold"
              font-family="Arial, sans-serif">
            偷偷星球
        </text>
    </g>

    <!-- 箭头定义 -->
    <defs>
        <marker id="arrowhead" markerWidth="10" markerHeight="7" refX="9" refY="3.5" orient="auto">
            <polygon points="0 0, 10 3.5, 0 7" fill="currentColor"/>
        </marker>
    </defs>
</svg>
