<svg viewBox="0 0 1000 900" xmlns="http://www.w3.org/2000/svg">
    <!-- 背景 -->
    <rect width="1000" height="900" fill="#ffffff"/>
    <text x="500" y="40" text-anchor="middle" font-size="24" font-weight="bold">状态消除法示例集</text>
     <!-- 水印 - 调整为更醒目的颜色和透明度 -->
    <text x="370" y="300" fill="#FF69B4" font-size="20" opacity="0.4">偷偷星球</text>
    <text x="690" y="580" fill="#FF69B4" font-size="20" opacity="0.4">偷偷星球</text>
        <!-- 水印 -->
    <text x="400" y="250" text-anchor="middle" font-size="48" fill="#33333322" transform="rotate(-30 400 250)">
        偷偷星球
    </text>
    <text x="200" y="500" text-anchor="middle" font-size="48" fill="#33333322" transform="rotate(-30 400 250)">
        偷偷星球
    </text>
    <!-- 例子 1：简单的三状态机 -->
    <g transform="translate(50,80)">
        <text x="150" y="20" text-anchor="middle" font-size="18" fill="#2a4d7f">例子1：简单三状态机</text>
        
        <!-- 初始状态 -->
        <g transform="translate(0,50)">
            <text x="150" y="-10" text-anchor="middle" font-size="14">初始状态</text>
            <circle cx="50" cy="50" r="20" stroke="#2a4d7f" fill="white" stroke-width="2"/>
            <circle cx="150" cy="50" r="20" stroke="#2a4d7f" fill="white" stroke-width="2"/>
            <circle cx="250" cy="50" r="20" stroke="#2a4d7f" fill="white" stroke-width="2"/>
            <text x="50" y="55" text-anchor="middle">q₀</text>
            <text x="150" y="55" text-anchor="middle">q₁</text>
            <text x="250" y="55" text-anchor="middle">q₂</text>
            <path d="M70,50 L130,50" stroke="#2a4d7f" fill="none" marker-end="url(#arrowhead)"/>
            <path d="M170,50 L230,50" stroke="#2a4d7f" fill="none" marker-end="url(#arrowhead)"/>
            <text x="100" y="45" text-anchor="middle">a</text>
            <text x="200" y="45" text-anchor="middle">b</text>
            <circle cx="250" cy="50" r="24" stroke="#2a4d7f" fill="none" stroke-width="2"/>
        </g>
        
        <!-- 最终结果 -->
        <g transform="translate(0,150)">
            <text x="150" y="-10" text-anchor="middle" font-size="14">消除q₁后</text>
            <circle cx="50" cy="50" r="20" stroke="#2a4d7f" fill="white" stroke-width="2"/>
            <circle cx="250" cy="50" r="20" stroke="#2a4d7f" fill="white" stroke-width="2"/>
            <text x="50" y="55" text-anchor="middle">q₀</text>
            <text x="250" y="55" text-anchor="middle">q₂</text>
            <path d="M70,50 C150,20 150,80 230,50" stroke="#2a4d7f" fill="none" marker-end="url(#arrowhead)"/>
            <text x="150" y="30" text-anchor="middle">ab</text>
            <circle cx="250" cy="50" r="24" stroke="#2a4d7f" fill="none" stroke-width="2"/>
        </g>
    </g>

    <!-- 例子 2：带自环的四状态机 -->
    <g transform="translate(500,80)">
        <text x="200" y="20" text-anchor="middle" font-size="18" fill="#2a4d7f">例子2：带自环的四状态机</text>
        
        <!-- 初始状态 -->
        <g transform="translate(0,50)">
            <text x="200" y="-10" text-anchor="middle" font-size="14">初始状态</text>
            <circle cx="50" cy="50" r="20" stroke="#2a4d7f" fill="white" stroke-width="2"/>
            <circle cx="150" cy="50" r="20" stroke="#2a4d7f" fill="white" stroke-width="2"/>
            <circle cx="250" cy="50" r="20" stroke="#2a4d7f" fill="white" stroke-width="2"/>
            <circle cx="350" cy="50" r="20" stroke="#2a4d7f" fill="white" stroke-width="2"/>
            <text x="50" y="55" text-anchor="middle">q₀</text>
            <text x="150" y="55" text-anchor="middle">q₁</text>
            <text x="250" y="55" text-anchor="middle">q₂</text>
            <text x="350" y="55" text-anchor="middle">q₃</text>
            
            <!-- 转移 -->
            <path d="M70,50 L130,50" stroke="#2a4d7f" fill="none" marker-end="url(#arrowhead)"/>
            <path d="M170,50 L230,50" stroke="#2a4d7f" fill="none" marker-end="url(#arrowhead)"/>
            <path d="M270,50 L330,50" stroke="#2a4d7f" fill="none" marker-end="url(#arrowhead)"/>
            <path d="M150,30 A20,20 0 1 1 150,70" stroke="#2a4d7f" fill="none" marker-end="url(#arrowhead)"/>
            <text x="100" y="45" text-anchor="middle">a</text>
            <text x="200" y="45" text-anchor="middle">b</text>
            <text x="300" y="45" text-anchor="middle">c</text>
            <text x="150" y="20" text-anchor="middle">d</text>
            <circle cx="350" cy="50" r="24" stroke="#2a4d7f" fill="none" stroke-width="2"/>
        </g>
        
        <!-- 中间步骤 -->
        <g transform="translate(0,150)">
            <text x="200" y="-10" text-anchor="middle" font-size="14">消除q₁后</text>
            <circle cx="50" cy="50" r="20" stroke="#2a4d7f" fill="white" stroke-width="2"/>
            <circle cx="250" cy="50" r="20" stroke="#2a4d7f" fill="white" stroke-width="2"/>
            <circle cx="350" cy="50" r="20" stroke="#2a4d7f" fill="white" stroke-width="2"/>
            <text x="50" y="55" text-anchor="middle">q₀</text>
            <text x="250" y="55" text-anchor="middle">q₂</text>
            <text x="350" y="55" text-anchor="middle">q₃</text>
            <path d="M70,50 C150,20 150,80 230,50" stroke="#2a4d7f" fill="none" marker-end="url(#arrowhead)"/>
            <path d="M270,50 L330,50" stroke="#2a4d7f" fill="none" marker-end="url(#arrowhead)"/>
            <text x="150" y="30" text-anchor="middle">ad*b</text>
            <text x="300" y="45" text-anchor="middle">c</text>
            <circle cx="350" cy="50" r="24" stroke="#2a4d7f" fill="none" stroke-width="2"/>
        </g>
        
        <!-- 最终结果 -->
        <g transform="translate(0,250)">
            <text x="200" y="-10" text-anchor="middle" font-size="14">最终结果</text>
            <circle cx="50" cy="50" r="20" stroke="#2a4d7f" fill="white" stroke-width="2"/>
            <circle cx="350" cy="50" r="20" stroke="#2a4d7f" fill="white" stroke-width="2"/>
            <text x="50" y="55" text-anchor="middle">q₀</text>
            <text x="350" y="55" text-anchor="middle">q₃</text>
            <path d="M70,50 C200,20 200,80 330,50" stroke="#2a4d7f" fill="none" marker-end="url(#arrowhead)"/>
            <text x="200" y="30" text-anchor="middle">ad*bc</text>
            <circle cx="350" cy="50" r="24" stroke="#2a4d7f" fill="none" stroke-width="2"/>
        </g>
    </g>

    <!-- 例子 3：复杂的五状态机 -->
    <g transform="translate(50,450)">
        <text x="300" y="20" text-anchor="middle" font-size="18" fill="#2a4d7f">例子3：带双向转移的五状态机</text>
        
        <!-- 初始状态 -->
        <g transform="translate(0,50)">
            <text x="300" y="-10" text-anchor="middle" font-size="14">初始状态</text>
            <circle cx="50" cy="50" r="20" stroke="#2a4d7f" fill="white" stroke-width="2"/>
            <circle cx="200" cy="50" r="20" stroke="#2a4d7f" fill="white" stroke-width="2"/>
            <circle cx="350" cy="50" r="20" stroke="#2a4d7f" fill="white" stroke-width="2"/>
            <circle cx="500" cy="50" r="20" stroke="#2a4d7f" fill="white" stroke-width="2"/>
            <circle cx="275" cy="150" r="20" stroke="#2a4d7f" fill="white" stroke-width="2"/>
            
            <text x="50" y="55" text-anchor="middle">q₀</text>
            <text x="200" y="55" text-anchor="middle">q₁</text>
            <text x="350" y="55" text-anchor="middle">q₂</text>
            <text x="500" y="55" text-anchor="middle">q₃</text>
            <text x="275" y="155" text-anchor="middle">q₄</text>
            
            <!-- 转移 -->
            <path d="M70,50 L180,50" stroke="#2a4d7f" fill="none" marker-end="url(#arrowhead)"/>
            <path d="M220,50 L330,50" stroke="#2a4d7f" fill="none" marker-end="url(#arrowhead)"/>
            <path d="M370,50 L480,50" stroke="#2a4d7f" fill="none" marker-end="url(#arrowhead)"/>
            
            <path d="M200,70 L275,130" stroke="#2a4d7f" fill="none" marker-end="url(#arrowhead)"/>
            <path d="M295,130 L350,70" stroke="#2a4d7f" fill="none" marker-end="url(#arrowhead)"/>
            
            <text x="125" y="45" text-anchor="middle">a</text>
            <text x="275" y="45" text-anchor="middle">b</text>
            <text x="425" y="45" text-anchor="middle">c</text>
            <text x="225" y="100" text-anchor="middle">d</text>
            <text x="325" y="100" text-anchor="middle">e</text>
            
            <circle cx="500" cy="50" r="24" stroke="#2a4d7f" fill="none" stroke-width="2"/>
        </g>
        
        <!-- 中间步骤1 -->
        <g transform="translate(0,250)">
            <text x="300" y="-10" text-anchor="middle" font-size="14">消除q₁和q₄后</text>
            <circle cx="50" cy="50" r="20" stroke="#2a4d7f" fill="white" stroke-width="2"/>
            <circle cx="350" cy="50" r="20" stroke="#2a4d7f" fill="white" stroke-width="2"/>
            <circle cx="500" cy="50" r="20" stroke="#2a4d7f" fill="white" stroke-width="2"/>
            
            <text x="50" y="55" text-anchor="middle">q₀</text>
            <text x="350" y="55" text-anchor="middle">q₂</text>
            <text x="500" y="55" text-anchor="middle">q₃</text>
            
            <path d="M70,50 C200,20 200,80 330,50" stroke="#2a4d7f" fill="none" marker-end="url(#arrowhead)"/>
            <path d="M370,50 L480,50" stroke="#2a4d7f" fill="none" marker-end="url(#arrowhead)"/>
            <path d="M350,30 A20,20 0 1 1 350,70" stroke="#2a4d7f" fill="none" marker-end="url(#arrowhead)"/>
            
            <text x="200" y="30" text-anchor="middle">ab</text>
            <text x="425" y="45" text-anchor="middle">c</text>
            <text x="350" y="20" text-anchor="middle">de</text>
            
            <circle cx="500" cy="50" r="24" stroke="#2a4d7f" fill="none" stroke-width="2"/>
        </g>
        
        <!-- 最终结果 -->
        <g transform="translate(0,350)">
            <text x="300" y="-10" text-anchor="middle" font-size="14">最终结果</text>
            <circle cx="50" cy="50" r="20" stroke="#2a4d7f" fill="white" stroke-width="2"/>
            <circle cx="500" cy="50" r="20" stroke="#2a4d7f" fill="white" stroke-width="2"/>
            
            <text x="50" y="55" text-anchor="middle">q₀</text>
            <text x="500" y="55" text-anchor="middle">q₃</text>
            
            <path d="M70,50 C275,20 275,80 480,50" stroke="#2a4d7f" fill="none" marker-end="url(#arrowhead)"/>
            <text x="275" y="30" text-anchor="middle">ab(de)*c</text>
            
            <circle cx="500" cy="50" r="24" stroke="#2a4d7f" fill="none" stroke-width="2"/>
        </g>
    </g>

    <!-- 箭头定义 -->
    <defs>
        <marker id="arrowhead" markerWidth="10" markerHeight="7" refX="9" refY="3.5" orient="auto">
            <polygon points="0 0, 10 3.5, 0 7" fill="#2a4d7f"/>
        </marker>
    </defs>
</svg>
