<svg xmlns="http://www.w3.org/2000/svg" viewBox="0 0 800 700">
  <defs>
    <style>
      .node { fill: #4CAF50; stroke: #45a049; stroke-width: 2; }
      .delete-node { fill: #F44336; stroke: #D32F2F; stroke-width: 2; }
      .link { stroke: #333; stroke-width: 2; }
      .label { font-family: Arial, sans-serif; font-size: 14px; fill: #fff; text-anchor: middle; dominant-baseline: middle; }
      .step-label { font-family: Arial, sans-serif; font-size: 16px; fill: #333; text-anchor: middle; }
      .watermark { font-family: 'Arial', sans-serif; font-size: 48px; fill: rgba(0,0,0,0.1); }
    </style>
  </defs>

  <!-- Step 1: Initial Tree -->
  <g transform="translate(0,0)">
    <circle class="node" cx="200" cy="50" r="20" />
    <text class="label" x="200" y="50">10</text>
    <circle class="node" cx="125" cy="100" r="20" />
    <text class="label" x="125" y="100">5</text>
    <circle class="node" cx="275" cy="100" r="20" />
    <text class="label" x="275" y="100">15</text>
    <circle class="node" cx="87" cy="150" r="20" />
    <text class="label" x="87" y="150">3</text>
    <circle class="node" cx="162" cy="150" r="20" />
    <text class="label" x="162" y="150">7</text>
    <line class="link" x1="200" y1="50" x2="125" y2="100" />
    <line class="link" x1="200" y1="50" x2="275" y2="100" />
    <line class="link" x1="125" y1="100" x2="87" y2="150" />
    <line class="link" x1="125" y1="100" x2="162" y2="150" />
    <text class="step-label" x="200" y="200">1. Initial Tree</text>
  </g>

  <!-- Step 2: Delete node 5 -->
  <g transform="translate(400,0)">
    <circle class="node" cx="200" cy="50" r="20" />
    <text class="label" x="200" y="50">10</text>
    <circle class="delete-node" cx="125" cy="100" r="20" />
    <text class="label" x="125" y="100">5</text>
    <circle class="node" cx="275" cy="100" r="20" />
    <text class="label" x="275" y="100">15</text>
    <circle class="node" cx="87" cy="150" r="20" />
    <text class="label" x="87" y="150">3</text>
    <circle class="node" cx="162" cy="150" r="20" />
    <text class="label" x="162" y="150">7</text>
    <line class="link" x1="200" y1="50" x2="125" y2="100" />
    <line class="link" x1="200" y1="50" x2="275" y2="100" />
    <line class="link" x1="125" y1="100" x2="87" y2="150" />
    <line class="link" x1="125" y1="100" x2="162" y2="150" />
    <text class="step-label" x="200" y="200">2. Delete node 5</text>
  </g>

  <!-- Step 3: Replace with successor -->
  <g transform="translate(0,350)">
    <circle class="node" cx="200" cy="50" r="20" />
    <text class="label" x="200" y="50">10</text>
    <circle class="node" cx="125" cy="100" r="20" />
    <text class="label" x="125" y="100">7</text>
    <circle class="node" cx="275" cy="100" r="20" />
    <text class="label" x="275" y="100">15</text>
    <circle class="node" cx="87" cy="150" r="20" />
    <text class="label" x="87" y="150">3</text>
    <line class="link" x1="200" y1="50" x2="125" y2="100" />
    <line class="link" x1="200" y1="50" x2="275" y2="100" />
    <line class="link" x1="125" y1="100" x2="87" y2="150" />
    <text class="step-label" x="200" y="200">3. Replace with successor (7)</text>
  </g>

  <!-- Step 4: After rotation -->
  <g transform="translate(400,350)">
    <circle class="node" cx="200" cy="50" r="20" />
    <text class="label" x="200" y="50">7</text>
    <circle class="node" cx="125" cy="100" r="20" />
    <text class="label" x="125" y="100">3</text>
    <circle class="node" cx="275" cy="100" r="20" />
    <text class="label" x="275" y="100">10</text>
    <circle class="node" cx="350" cy="150" r="20" />
    <text class="label" x="350" y="150">15</text>
    <line class="link" x1="200" y1="50" x2="125" y2="100" />
    <line class="link" x1="200" y1="50" x2="275" y2="100" />
    <line class="link" x1="275" y1="100" x2="350" y2="150" />
    <text class="step-label" x="200" y="200">4. After rotation (Tree is balanced)</text>
  </g>

  <!-- Watermark -->
  <text class="watermark" x="400" y="350" text-anchor="middle" dominant-baseline="middle">偷偷星球</text>
</svg>