<svg xmlns="http://www.w3.org/2000/svg" viewBox="0 0 800 600">
  <style>
    text { font-family: Arial, sans-serif; }
    .title { font-size: 24px; font-weight: bold; }
    .subtitle { font-size: 18px; font-weight: bold; }
    .label { font-size: 14px; }
    .small-label { font-size: 12px; }
  </style>
  
  <!-- 背景 -->
  <rect width="800" height="600" fill="#f0f0f0"/>
  
  <!-- 标题 -->
  <text x="400" y="30" text-anchor="middle" class="title">哈希表冲突解决方法</text>
  
  <!-- 链式法 -->
  <text x="200" y="70" text-anchor="middle" class="subtitle">链式法</text>
  <rect x="50" y="80" width="300" height="240" fill="none" stroke="#333" stroke-width="2"/>
  
  <!-- 链式法的哈希桶 -->
  <g transform="translate(60,100)">
    <rect width="280" height="40" fill="#fff" stroke="#333"/>
    <text x="10" y="25" class="label">索引0</text>
    <line x1="70" y1="20" x2="100" y2="20" stroke="#333" stroke-width="2"/>
    <rect x="100" y="5" width="60" height="30" fill="#ff9" stroke="#333"/>
    <text x="130" y="25" text-anchor="middle" class="small-label">Key1</text>
    <line x1="160" y1="20" x2="190" y2="20" stroke="#333" stroke-width="2"/>
    <rect x="190" y="5" width="60" height="30" fill="#ff9" stroke="#333"/>
    <text x="220" y="25" text-anchor="middle" class="small-label">Key5</text>
  </g>
  
  <g transform="translate(60,150)">
    <rect width="280" height="40" fill="#fff" stroke="#333"/>
    <text x="10" y="25" class="label">索引1</text>
    <line x1="70" y1="20" x2="100" y2="20" stroke="#333" stroke-width="2"/>
    <rect x="100" y="5" width="60" height="30" fill="#ff9" stroke="#333"/>
    <text x="130" y="25" text-anchor="middle" class="small-label">Key2</text>
  </g>
  
  <g transform="translate(60,200)">
    <rect width="280" height="40" fill="#fff" stroke="#333"/>
    <text x="10" y="25" class="label">索引2</text>
    <line x1="70" y1="20" x2="100" y2="20" stroke="#333" stroke-width="2"/>
    <rect x="100" y="5" width="60" height="30" fill="#ff9" stroke="#333"/>
    <text x="130" y="25" text-anchor="middle" class="small-label">Key3</text>
    <line x1="160" y1="20" x2="190" y2="20" stroke="#333" stroke-width="2"/>
    <rect x="190" y="5" width="60" height="30" fill="#ff9" stroke="#333"/>
    <text x="220" y="25" text-anchor="middle" class="small-label">Key6</text>
  </g>
  
  <g transform="translate(60,250)">
    <rect width="280" height="40" fill="#fff" stroke="#333"/>
    <text x="10" y="25" class="label">索引3</text>
    <line x1="70" y1="20" x2="100" y2="20" stroke="#333" stroke-width="2"/>
    <rect x="100" y="5" width="60" height="30" fill="#ff9" stroke="#333"/>
    <text x="130" y="25" text-anchor="middle" class="small-label">Key4</text>
  </g>
  
  <!-- 链式法说明 -->
  <text x="200" y="340" text-anchor="middle" class="small-label">
    链式法：每个哈希桶维护一个链表，冲突的元素被添加到链表中
  </text>
  
  <!-- 开放寻址法 -->
  <text x="600" y="70" text-anchor="middle" class="subtitle">开放寻址法</text>
  <rect x="450" y="80" width="300" height="240" fill="none" stroke="#333" stroke-width="2"/>
  
  <!-- 开放寻址法的哈希表 -->
  <g transform="translate(460,100)">
    <rect width="280" height="40" fill="#fff" stroke="#333"/>
    <text x="10" y="25" class="label">索引0</text>
    <rect x="100" y="5" width="60" height="30" fill="#ff9" stroke="#333"/>
    <text x="130" y="25" text-anchor="middle" class="small-label">Key1</text>
  </g>
  
  <g transform="translate(460,150)">
    <rect width="280" height="40" fill="#fff" stroke="#333"/>
    <text x="10" y="25" class="label">索引1</text>
    <rect x="100" y="5" width="60" height="30" fill="#ff9" stroke="#333"/>
    <text x="130" y="25" text-anchor="middle" class="small-label">Key2</text>
  </g>
  
  <g transform="translate(460,200)">
    <rect width="280" height="40" fill="#fff" stroke="#333"/>
    <text x="10" y="25" class="label">索引2</text>
    <rect x="100" y="5" width="60" height="30" fill="#ff9" stroke="#333"/>
    <text x="130" y="25" text-anchor="middle" class="small-label">Key3</text>
  </g>
  
  <g transform="translate(460,250)">
    <rect width="280" height="40" fill="#fff" stroke="#333"/>
    <text x="10" y="25" class="label">索引3</text>
    <rect x="100" y="5" width="60" height="30" fill="#ff9" stroke="#333"/>
    <text x="130" y="25" text-anchor="middle" class="small-label">Key5</text>
  </g>
  
  <!-- 开放寻址法说明 -->
  <text x="600" y="340" text-anchor="middle" class="small-label">
    开放寻址法：冲突时，寻找下一个空槽位（线性探测、二次探测或双重哈希）
  </text>
  
  <!-- 箭头指示冲突解决 -->
  <defs>
    <marker id="arrowhead" markerWidth="10" markerHeight="7" refX="0" refY="3.5" orient="auto">
      <polygon points="0 0, 10 3.5, 0 7" fill="#333"/>
    </marker>
  </defs>
  
  <path d="M 590 140 Q 620 170 590 200" fill="none" stroke="#333" stroke-width="2" marker-end="url(#arrowhead)"/>
  <text x="640" y="180" class="small-label">冲突：Key5</text>
  <text x="640" y="195" class="small-label">移至下一个空槽</text>
  
  <!-- 比较 -->
  <text x="400" y="400" text-anchor="middle" class="subtitle">比较</text>
  <line x1="50" y1="420" x2="750" y2="420" stroke="#333" stroke-width="2"/>
  <text x="60" y="440" class="small-label">链式法：</text>
  <text x="100" y="460" class="small-label">• 更灵活，支持无限冲突</text>
  <text x="100" y="480" class="small-label">• 可能需要额外的内存分配</text>
  <text x="100" y="500" class="small-label">• 查找时可能需要遍历链表</text>
  
  <text x="400" y="440" class="small-label">开放寻址法：</text>
  <text x="440" y="460" class="small-label">• 内存利用更高效</text>
  <text x="440" y="480" class="small-label">• 性能受负载因子影响大</text>
  <text x="440" y="500" class="small-label">• 需要良好的探测策略</text>
<!-- Updated Watermark -->
  <text x="400" y="200" font-family="Arial, sans-serif" font-size="60" fill="rgba(150,150,150,0.2)" text-anchor="middle" transform="rotate(-30 400 200)">偷偷星球</text>

</svg>

