<svg xmlns="http://www.w3.org/2000/svg" viewBox="0 0 800 600">
  <defs>
    <filter id="shadow" x="-20%" y="-20%" width="140%" height="140%">
      <feGaussianBlur in="SourceAlpha" stdDeviation="2" result="blur"/>
      <feOffset in="blur" dx="2" dy="2" result="offsetBlur"/>
      <feMerge>
        <feMergeNode in="offsetBlur"/>
        <feMergeNode in="SourceGraphic"/>
      </feMerge>
    </filter>
  </defs>
  
  <!-- Tree structure -->
  <line x1="400" y1="100" x2="200" y2="200" stroke="black" stroke-width="2"/>
  <line x1="400" y1="100" x2="600" y2="200" stroke="black" stroke-width="2"/>
  <line x1="200" y1="200" x2="100" y2="300" stroke="black" stroke-width="2"/>
  <line x1="200" y1="200" x2="300" y2="300" stroke="black" stroke-width="2"/>
  <line x1="300" y1="300" x2="250" y2="400" stroke="black" stroke-width="2"/>
  <line x1="300" y1="300" x2="350" y2="400" stroke="black" stroke-width="2"/>
  
  <!-- Nodes -->
  <circle cx="400" cy="100" r="40" fill="#99FF99" stroke="black" stroke-width="2" filter="url(#shadow)"/>
  <circle cx="200" cy="200" r="40" fill="#FF9999" stroke="black" stroke-width="2" filter="url(#shadow)"/>
  <circle cx="600" cy="200" r="40" fill="#FFFF99" stroke="black" stroke-width="2" filter="url(#shadow)"/>
  <circle cx="100" cy="300" r="40" fill="#FFFF99" stroke="black" stroke-width="2" filter="url(#shadow)"/>
  <circle cx="300" cy="300" r="40" fill="#99FF99" stroke="black" stroke-width="2" filter="url(#shadow)"/>
  <circle cx="250" cy="400" r="40" fill="#FFFF99" stroke="black" stroke-width="2" filter="url(#shadow)"/>
  <circle cx="350" cy="400" r="40" fill="#FFFF99" stroke="black" stroke-width="2" filter="url(#shadow)"/>
  
  <!-- Node labels -->
  <text x="400" y="110" text-anchor="middle" font-size="30" font-weight="bold">*</text>
  <text x="200" y="210" text-anchor="middle" font-size="30" font-weight="bold">-</text>
  <text x="600" y="210" text-anchor="middle" font-size="30" font-weight="bold">5</text>
  <text x="100" y="310" text-anchor="middle" font-size="30" font-weight="bold">8</text>
  <text x="300" y="310" text-anchor="middle" font-size="30" font-weight="bold">/</text>
  <text x="250" y="410" text-anchor="middle" font-size="30" font-weight="bold">1</text>
  <text x="350" y="410" text-anchor="middle" font-size="30" font-weight="bold">7</text>
  
  <!-- RPN Expression -->
  <text x="400" y="500" text-anchor="middle" font-size="30" font-weight="bold">RPN: 8 1 7 / - 5 *</text>
  
  <!-- Infix Expression -->
  <text x="400" y="540" text-anchor="middle" font-size="30" font-weight="bold">Infix: (8 - 1 / 7) * 5</text>
  
  <!-- Legend -->
  <rect x="600" y="400" width="20" height="20" fill="#FF9999" stroke="black"/>
  <text x="630" y="415" font-size="16">Subtraction</text>
  <rect x="600" y="430" width="20" height="20" fill="#99FF99" stroke="black"/>
  <text x="630" y="445" font-size="16">Multiplication/Division</text>
  <rect x="600" y="460" width="20" height="20" fill="#FFFF99" stroke="black"/>
  <text x="630" y="475" font-size="16">Number</text>
  
  <!-- Watermark -->
  <text x="400" y="300" text-anchor="middle" font-size="72" fill="rgba(0,0,0,0.1)" transform="rotate(-45, 400, 300)">偷偷星球</text>
</svg>
