<svg viewBox="0 0 800 600" xmlns="http://www.w3.org/2000/svg">
  <!-- Background -->
  <rect width="800" height="600" fill="#f8f9fa"/>
  
  <!-- Title -->
  <text x="400" y="30" text-anchor="middle" font-family="Arial, sans-serif" font-size="24" font-weight="bold" fill="#2c3e50">A* 算法原理讲解</text>
  
  <!-- Grid background -->
  <defs>
    <pattern id="grid" width="25" height="25" patternUnits="userSpaceOnUse">
      <path d="M 25 0 L 0 0 0 25" fill="none" stroke="#e0e0e0" stroke-width="0.5"/>
    </pattern>
  </defs>
  
  <!-- Grid area -->
  <rect x="50" y="80" width="300" height="200" fill="url(#grid)" stroke="#ccc" stroke-width="1"/>
  
  <!-- Start node -->
  <circle cx="75" cy="105" r="12" fill="#4CAF50" stroke="#2E7D32" stroke-width="2"/>
  <text x="75" y="110" text-anchor="middle" font-family="Arial" font-size="10" font-weight="bold" fill="white">S</text>
  <text x="75" y="125" text-anchor="middle" font-family="Arial" font-size="8" fill="#2E7D32">起点</text>
  
  <!-- Goal node -->
  <circle cx="325" cy="255" r="12" fill="#F44336" stroke="#C62828" stroke-width="2"/>
  <text x="325" y="260" text-anchor="middle" font-family="Arial" font-size="10" font-weight="bold" fill="white">G</text>
  <text x="325" y="275" text-anchor="middle" font-family="Arial" font-size="8" fill="#C62828">终点</text>
  
  <!-- Obstacles -->
  <rect x="125" y="130" width="25" height="25" fill="#424242" stroke="#212121"/>
  <rect x="150" y="130" width="25" height="25" fill="#424242" stroke="#212121"/>
  <rect x="175" y="130" width="25" height="25" fill="#424242" stroke="#212121"/>
  <rect x="200" y="155" width="25" height="25" fill="#424242" stroke="#212121"/>
  <rect x="200" y="180" width="25" height="25" fill="#424242" stroke="#212121"/>
  
  <!-- Path nodes -->
  <circle cx="100" cy="105" r="8" fill="#FFE082" stroke="#FF8F00" stroke-width="1"/>
  <circle cx="100" cy="130" r="8" fill="#FFE082" stroke="#FF8F00" stroke-width="1"/>
  <circle cx="100" cy="155" r="8" fill="#FFE082" stroke="#FF8F00" stroke-width="1"/>
  <circle cx="125" cy="180" r="8" fill="#FFE082" stroke="#FF8F00" stroke-width="1"/>
  <circle cx="150" cy="205" r="8" fill="#FFE082" stroke="#FF8F00" stroke-width="1"/>
  <circle cx="175" cy="230" r="8" fill="#FFE082" stroke="#FF8F00" stroke-width="1"/>
  <circle cx="200" cy="255" r="8" fill="#FFE082" stroke="#FF8F00" stroke-width="1"/>
  
  <!-- Optimal path -->
  <polyline points="75,105 100,105 100,130 100,155 125,180 150,205 175,230 200,255 325,255" 
            fill="none" stroke="#2196F3" stroke-width="3" stroke-dasharray="5,5"/>
  
  <!-- Algorithm explanation -->
  <text x="400" y="90" font-family="Arial" font-size="16" font-weight="bold" fill="#1976D2">核心公式：</text>
  <text x="400" y="115" font-family="Arial" font-size="14" fill="#333">f(n) = g(n) + h(n)</text>
  
  <!-- Legend -->
  <rect x="400" y="140" width="350" height="140" fill="#fff" stroke="#ddd" stroke-width="1" rx="5"/>
  <text x="410" y="155" font-family="Arial" font-size="12" font-weight="bold" fill="#333">图例说明：</text>
  
  <!-- Legend items -->
  <circle cx="420" cy="175" r="8" fill="#4CAF50"/>
  <text x="435" y="180" font-family="Arial" font-size="11" fill="#333">起始节点 (S)</text>
  
  <circle cx="420" cy="195" r="8" fill="#F44336"/>
  <text x="435" y="200" font-family="Arial" font-size="11" fill="#333">目标节点 (G)</text>
  
  <rect x="412" y="210" width="16" height="10" fill="#424242"/>
  <text x="435" y="220" font-family="Arial" font-size="11" fill="#333">障碍物</text>
  
  <circle cx="420" cy="235" r="6" fill="#FFE082" stroke="#FF8F00"/>
  <text x="435" y="240" font-family="Arial" font-size="11" fill="#333">已探索节点</text>
  
  <line x1="420" y1="250" x2="440" y2="250" stroke="#2196F3" stroke-width="3" stroke-dasharray="3,3"/>
  <text x="445" y="255" font-family="Arial" font-size="11" fill="#333">最优路径</text>
  
  <!-- Cost explanation -->
  <rect x="50" y="300" width="700" height="120" fill="#E3F2FD" stroke="#1976D2" stroke-width="1" rx="5"/>
  <text x="60" y="320" font-family="Arial" font-size="14" font-weight="bold" fill="#1976D2">算法详解：</text>
  
  <text x="60" y="340" font-family="Arial" font-size="12" fill="#333">• g(n)：从起点到当前节点的实际代价</text>
  <text x="60" y="355" font-family="Arial" font-size="12" fill="#333">• h(n)：从当前节点到目标的启发式估计代价（不能高估）</text>
  <text x="60" y="370" font-family="Arial" font-size="12" fill="#333">• f(n)：总估计代价，用于确定节点优先级</text>
  <text x="60" y="385" font-family="Arial" font-size="12" fill="#333">• 使用优先队列，始终选择 f(n) 最小的节点进行扩展</text>
  <text x="60" y="400" font-family="Arial" font-size="12" fill="#333">• 广泛应用于游戏AI、地图导航、机器人路径规划等领域</text>
  
  <!-- Example node with costs -->
  <g transform="translate(550, 150)">
    <circle cx="0" cy="0" r="15" fill="#81C784" stroke="#4CAF50" stroke-width="2"/>
    <text x="0" y="-20" text-anchor="middle" font-family="Arial" font-size="8" fill="#333">f=8</text>
    <text x="-15" y="5" text-anchor="middle" font-family="Arial" font-size="7" fill="#333">g=3</text>
    <text x="15" y="5" text-anchor="middle" font-family="Arial" font-size="7" fill="#333">h=5</text>
    <text x="0" y="25" text-anchor="middle" font-family="Arial" font-size="8" fill="#333">示例节点</text>
  </g>
  
  <!-- Priority Queue visualization -->
  <rect x="400" y="450" width="350" height="80" fill="#FFF3E0" stroke="#FF9800" stroke-width="1" rx="5"/>
  <text x="410" y="470" font-family="Arial" font-size="12" font-weight="bold" fill="#F57C00">优先队列（按f值排序）：</text>
  
  <rect x="410" y="480" width="40" height="20" fill="#FFCC02" stroke="#FF8F00"/>
  <text x="430" y="493" text-anchor="middle" font-family="Arial" font-size="10" fill="#333">f=6</text>
  
  <rect x="460" y="480" width="40" height="20" fill="#FFE082" stroke="#FF8F00"/>
  <text x="480" y="493" text-anchor="middle" font-family="Arial" font-size="10" fill="#333">f=8</text>
  
  <rect x="510" y="480" width="40" height="20" fill="#FFF9C4" stroke="#FF8F00"/>
  <text x="530" y="493" text-anchor="middle" font-family="Arial" font-size="10" fill="#333">f=12</text>
  
  <text x="410" y="515" font-family="Arial" font-size="10" fill="#666">下一个选择 →</text>
  
  <!-- Watermark -->
  <text x="400" y="580" text-anchor="middle" font-family="Arial" font-size="18" font-weight="bold" fill="#E0E0E0" opacity="0.6">偷偷星球</text>
</svg>