<?xml version="1.0" encoding="UTF-8" standalone="no"?>
<svg xmlns="http://www.w3.org/2000/svg" viewBox="0 0 800 600" width="800" height="600">
  <!-- 背景 -->
  <rect width="800" height="600" fill="#f9f9f9"/>
  
  <!-- 标题 -->
  <text x="400" y="40" font-family="Arial, SimHei, sans-serif" font-size="24" text-anchor="middle" font-weight="bold">分支定界法（Branch &amp; Bound）图解</text>
  
  <!-- 水印 -->
  <text x="400" y="300" font-family="Arial, SimHei, sans-serif" font-size="36" text-anchor="middle" fill="gray" opacity="0.2" transform="rotate(-30 400 300)">偷偷星球</text>
  
  <!-- 根节点 -->
  <circle cx="400" cy="120" r="30" fill="#4CAF50" stroke="#2E7D32" stroke-width="2"/>
  <text x="400" y="125" font-family="Arial, SimHei, sans-serif" font-size="14" text-anchor="middle" fill="white">根节点</text>
  <text x="400" y="145" font-family="Arial, SimHei, sans-serif" font-size="12" text-anchor="middle" fill="white">上界: 20</text>

  <!-- 第一层分支 -->
  <line x1="380" y1="145" x2="300" y2="200" stroke="#333" stroke-width="2"/>
  <line x1="420" y1="145" x2="500" y2="200" stroke="#333" stroke-width="2"/>

  <!-- 左节点 -->
  <circle cx="300" cy="220" r="30" fill="#2196F3" stroke="#0D47A1" stroke-width="2"/>
  <text x="300" y="218" font-family="Arial, SimHei, sans-serif" font-size="12" text-anchor="middle" fill="white">x₁=0</text>
  <text x="300" y="235" font-family="Arial, SimHei, sans-serif" font-size="12" text-anchor="middle" fill="white">上界: 18</text>

  <!-- 右节点 -->
  <circle cx="500" cy="220" r="30" fill="#2196F3" stroke="#0D47A1" stroke-width="2"/>
  <text x="500" y="218" font-family="Arial, SimHei, sans-serif" font-size="12" text-anchor="middle" fill="white">x₁=1</text>
  <text x="500" y="235" font-family="Arial, SimHei, sans-serif" font-size="12" text-anchor="middle" fill="white">上界: 15</text>

  <!-- 第二层左分支 -->
  <line x1="280" y1="245" x2="220" y2="300" stroke="#333" stroke-width="2"/>
  <line x1="320" y1="245" x2="380" y2="300" stroke="#333" stroke-width="2"/>

  <!-- 第二层右分支 -->
  <line x1="480" y1="245" x2="420" y2="300" stroke="#333" stroke-width="2"/>
  <line x1="520" y1="245" x2="580" y2="300" stroke="#333" stroke-width="2"/>

  <!-- 左下节点 -->
  <circle cx="220" cy="320" r="30" fill="#2196F3" stroke="#0D47A1" stroke-width="2"/>
  <text x="220" y="318" font-family="Arial, SimHei, sans-serif" font-size="12" text-anchor="middle" fill="white">x₁=0,x₂=0</text>
  <text x="220" y="335" font-family="Arial, SimHei, sans-serif" font-size="12" text-anchor="middle" fill="white">上界: 16</text>

  <!-- 剪枝节点左 -->
  <circle cx="380" cy="320" r="30" fill="#F44336" stroke="#B71C1C" stroke-width="2"/>
  <text x="380" y="318" font-family="Arial, SimHei, sans-serif" font-size="12" text-anchor="middle" fill="white">x₁=0,x₂=1</text>
  <text x="380" y="335" font-family="Arial, SimHei, sans-serif" font-size="12" text-anchor="middle" fill="white">剪枝</text>
  <line x1="355" y1="295" x2="405" y2="345" stroke="#B71C1C" stroke-width="2"/>
  <line x1="405" y1="295" x2="355" y2="345" stroke="#B71C1C" stroke-width="2"/>

  <!-- 剪枝节点右 -->
  <circle cx="420" cy="320" r="30" fill="#F44336" stroke="#B71C1C" stroke-width="2"/>
  <text x="420" y="318" font-family="Arial, SimHei, sans-serif" font-size="12" text-anchor="middle" fill="white">x₁=1,x₂=0</text>
  <text x="420" y="335" font-family="Arial, SimHei, sans-serif" font-size="12" text-anchor="middle" fill="white">剪枝</text>
  <line x1="395" y1="295" x2="445" y2="345" stroke="#B71C1C" stroke-width="2"/>
  <line x1="445" y1="295" x2="395" y2="345" stroke="#B71C1C" stroke-width="2"/>

  <!-- 最优解 -->
  <circle cx="580" cy="320" r="30" fill="#9C27B0" stroke="#4A148C" stroke-width="2"/>
  <text x="580" y="318" font-family="Arial, SimHei, sans-serif" font-size="12" text-anchor="middle" fill="white">x₁=1,x₂=1</text>
  <text x="580" y="335" font-family="Arial, SimHei, sans-serif" font-size="12" text-anchor="middle" fill="white">最优: 14</text>

  <!-- 第三层分支 -->
  <line x1="200" y1="345" x2="100" y2="420" stroke="#333" stroke-width="2"/>
  <line x1="240" y1="345" x2="320" y2="400" stroke="#333" stroke-width="2"/>

  <!-- 剪枝终节点左下 -->
  <circle cx="100" cy="440" r="30" fill="#F44336" stroke="#B71C1C" stroke-width="2"/>
  <text x="100" y="435" font-family="Arial, SimHei, sans-serif" font-size="10" text-anchor="middle" fill="white">x₁=0,x₂=0</text>
  <text x="100" y="448" font-family="Arial, SimHei, sans-serif" font-size="10" text-anchor="middle" fill="white">x₃=0</text>
  <text x="100" y="461" font-family="Arial, SimHei, sans-serif" font-size="10" text-anchor="middle" fill="white">剪枝</text>
  <line x1="75" y1="415" x2="125" y2="465" stroke="#B71C1C" stroke-width="2"/>
  <line x1="125" y1="415" x2="75" y2="465" stroke="#B71C1C" stroke-width="2"/>

  <!-- 可行终节点右下 -->
  <circle cx="320" cy="420" r="30" fill="#FF9800" stroke="#E65100" stroke-width="2"/>
  <text x="320" y="415" font-family="Arial, SimHei, sans-serif" font-size="10" text-anchor="middle" fill="white">x₁=0,x₂=0</text>
  <text x="320" y="428" font-family="Arial, SimHei, sans-serif" font-size="10" text-anchor="middle" fill="white">x₃=1</text>
  <text x="320" y="441" font-family="Arial, SimHei, sans-serif" font-size="10" text-anchor="middle" fill="white">可行: 16</text>

  <!-- 图例 -->
  <rect x="50" y="490" width="20" height="20" fill="#4CAF50" stroke="#2E7D32" stroke-width="1"/>
  <text x="80" y="505" font-family="Arial, SimHei, sans-serif" font-size="14">根节点</text>

  <rect x="190" y="490" width="20" height="20" fill="#2196F3" stroke="#0D47A1" stroke-width="1"/>
  <text x="220" y="505" font-family="Arial, SimHei, sans-serif" font-size="14">分支节点</text>

  <rect x="330" y="490" width="20" height="20" fill="#F44336" stroke="#B71C1C" stroke-width="1"/>
  <text x="360" y="505" font-family="Arial, SimHei, sans-serif" font-size="14">剪枝节点</text>

  <rect x="470" y="490" width="20" height="20" fill="#FF9800" stroke="#E65100" stroke-width="1"/>
  <text x="500" y="505" font-family="Arial, SimHei, sans-serif" font-size="14">可行解</text>

  <rect x="610" y="490" width="20" height="20" fill="#9C27B0" stroke="#4A148C" stroke-width="1"/>
  <text x="640" y="505" font-family="Arial, SimHei, sans-serif" font-size="14">最优解</text>

  <!-- 算法说明 -->
  <rect x="50" y="530" width="700" height="50" fill="#EEEEEE" rx="5" ry="5"/>
  <text x="60" y="550" font-family="Arial, SimHei, sans-serif" font-size="14">分支定界法步骤: 1.分支(分割问题) 2.计算上界(松弛问题) 3.定界(剪枝) 4.选择节点(最佳优先)</text>
  <text x="60" y="570" font-family="Arial, SimHei, sans-serif" font-size="14">剪枝条件: 当节点的上界值大于已知最优值或不可行时，该分支可被剪掉</text>
</svg>
