<svg viewBox="0 0 1000 800" xmlns="http://www.w3.org/2000/svg">
  <!-- 背景 -->
  <rect width="1000" height="800" fill="#f8f9fa"/>
  
  <!-- 标题 -->
  <text x="500" y="30" text-anchor="middle" font-size="24" font-weight="bold" fill="#2c3e50">分布式哈希表 (DHT) 原理图解</text>
  
  <!-- 偷偷星球水印 -->
  <g transform="translate(500, 400)" opacity="0.15">
    <rect x="-80" y="-25" width="160" height="50" fill="#e74c3c" rx="10"/>
    <text x="0" y="5" text-anchor="middle" font-size="28" font-weight="bold" fill="white">偷偷星球</text>
  </g>
  
  <!-- DHT环形结构 -->
  <g transform="translate(250, 200)">
    <!-- 环形背景 -->
    <circle cx="0" cy="0" r="120" fill="none" stroke="#bdc3c7" stroke-width="3" stroke-dasharray="5,5"/>
    
    <!-- 节点 -->
    <g id="node1" transform="rotate(0)">
      <circle cx="0" cy="-120" r="25" fill="#3498db" stroke="#2980b9" stroke-width="2"/>
      <text x="0" y="-110" text-anchor="middle" font-size="10" fill="white" font-weight="bold">节点A</text>
      <text x="0" y="-100" text-anchor="middle" font-size="8" fill="white">ID: 0</text>
    </g>
    
    <g id="node2" transform="rotate(72)">
      <circle cx="0" cy="-120" r="25" fill="#e74c3c" stroke="#c0392b" stroke-width="2"/>
      <text x="0" y="-110" text-anchor="middle" font-size="10" fill="white" font-weight="bold">节点B</text>
      <text x="0" y="-100" text-anchor="middle" font-size="8" fill="white">ID: 3</text>
    </g>
    
    <g id="node3" transform="rotate(144)">
      <circle cx="0" cy="-120" r="25" fill="#2ecc71" stroke="#27ae60" stroke-width="2"/>
      <text x="0" y="-110" text-anchor="middle" font-size="10" fill="white" font-weight="bold">节点C</text>
      <text x="0" y="-100" text-anchor="middle" font-size="8" fill="white">ID: 6</text>
    </g>
    
    <g id="node4" transform="rotate(216)">
      <circle cx="0" cy="-120" r="25" fill="#f39c12" stroke="#e67e22" stroke-width="2"/>
      <text x="0" y="-110" text-anchor="middle" font-size="10" fill="white" font-weight="bold">节点D</text>
      <text x="0" y="-100" text-anchor="middle" font-size="8" fill="white">ID: 9</text>
    </g>
    
    <g id="node5" transform="rotate(288)">
      <circle cx="0" cy="-120" r="25" fill="#9b59b6" stroke="#8e44ad" stroke-width="2"/>
      <text x="0" y="-110" text-anchor="middle" font-size="10" fill="white" font-weight="bold">节点E</text>
      <text x="0" y="-100" text-anchor="middle" font-size="8" fill="white">ID: 12</text>
    </g>
    
    <!-- 中心标签 -->
    <text x="0" y="-5" text-anchor="middle" font-size="14" font-weight="bold" fill="#2c3e50">DHT环</text>
    <text x="0" y="10" text-anchor="middle" font-size="10" fill="#7f8c8d">ID空间: 0-15</text>
  </g>
  
  <!-- 数据存储示例 -->
  <g transform="translate(250, 450)">
    <rect x="-80" y="-30" width="160" height="60" fill="#ecf0f1" stroke="#bdc3c7" stroke-width="2" rx="5"/>
    <text x="0" y="-10" text-anchor="middle" font-size="12" font-weight="bold" fill="#2c3e50">数据存储规则</text>
    <text x="0" y="5" text-anchor="middle" font-size="10" fill="#7f8c8d">数据存储在ID ≥ hash(key)的</text>
    <text x="0" y="18" text-anchor="middle" font-size="10" fill="#7f8c8d">第一个节点上</text>
  </g>
  
  <!-- 哈希示例 -->
  <g transform="translate(600, 150)">
    <rect x="-100" y="-20" width="200" height="140" fill="#ffffff" stroke="#3498db" stroke-width="2" rx="8"/>
    <text x="0" y="0" text-anchor="middle" font-size="14" font-weight="bold" fill="#2c3e50">哈希示例</text>
    
    <!-- 示例1 -->
    <text x="-80" y="20" font-size="11" fill="#34495e">Key: "file1.txt"</text>
    <text x="-80" y="35" font-size="11" fill="#e74c3c">hash("file1.txt") = 4</text>
    <text x="-80" y="50" font-size="11" fill="#27ae60">存储在节点C (ID:6)</text>
    
    <!-- 示例2 -->
    <text x="-80" y="70" font-size="11" fill="#34495e">Key: "data.json"</text>
    <text x="-80" y="85" font-size="11" fill="#e74c3c">hash("data.json") = 10</text>
    <text x="-80" y="100" font-size="11" fill="#27ae60">存储在节点E (ID:12)</text>
    
    <!-- 箭头指向环 -->
    <path d="M -100 60 Q -150 60 -200 100" fill="none" stroke="#e74c3c" stroke-width="2" marker-end="url(#arrowhead)"/>
  </g>
  
  <!-- 路由表示例 -->
  <g transform="translate(600, 350)">
    <rect x="-100" y="-20" width="200" height="180" fill="#ffffff" stroke="#e74c3c" stroke-width="2" rx="8"/>
    <text x="0" y="0" text-anchor="middle" font-size="14" font-weight="bold" fill="#2c3e50">节点A的路由表</text>
    
    <!-- Finger Table -->
    <text x="-80" y="25" font-size="12" font-weight="bold" fill="#34495e">Finger Table:</text>
    <text x="-80" y="45" font-size="10" fill="#7f8c8d">finger[0]: 节点A (ID:0)</text>
    <text x="-80" y="60" font-size="10" fill="#7f8c8d">finger[1]: 节点B (ID:3)</text>
    <text x="-80" y="75" font-size="10" fill="#7f8c8d">finger[2]: 节点D (ID:9)</text>
    <text x="-80" y="90" font-size="10" fill="#7f8c8d">finger[3]: 节点A (ID:0)</text>
    
    <!-- 后继和前驱 -->
    <text x="-80" y="115" font-size="12" font-weight="bold" fill="#34495e">直接连接:</text>
    <text x="-80" y="135" font-size="10" fill="#27ae60">后继: 节点B (ID:3)</text>
    <text x="-80" y="150" font-size="10" fill="#27ae60">前驱: 节点E (ID:12)</text>
  </g>
  
  <!-- 查找过程 -->
  <g transform="translate(250, 600)">
    <rect x="-200" y="-50" width="400" height="100" fill="#fff5f5" stroke="#e74c3c" stroke-width="2" rx="8"/>
    <text x="0" y="-25" text-anchor="middle" font-size="14" font-weight="bold" fill="#2c3e50">查找过程示例</text>
    <text x="0" y="-5" text-anchor="middle" font-size="11" fill="#34495e">节点A查找Key="config.xml" (hash=7)</text>
    
    <g transform="translate(-120, 15)">
      <circle cx="0" cy="0" r="15" fill="#3498db"/>
      <text x="0" y="4" text-anchor="middle" font-size="8" fill="white">A</text>
      <text x="0" y="-25" text-anchor="middle" font-size="9" fill="#34495e">起始</text>
    </g>
    
    <path d="M -100 15 L -50 15" stroke="#e74c3c" stroke-width="2" marker-end="url(#arrowhead)"/>
    
    <g transform="translate(-20, 15)">
      <circle cx="0" cy="0" r="15" fill="#2ecc71"/>
      <text x="0" y="4" text-anchor="middle" font-size="8" fill="white">C</text>
      <text x="0" y="-25" text-anchor="middle" font-size="9" fill="#34495e">转发</text>
    </g>
    
    <path d="M 0 15 L 50 15" stroke="#e74c3c" stroke-width="2" marker-end="url(#arrowhead)"/>
    
    <g transform="translate(80, 15)">
      <circle cx="0" cy="0" r="15" fill="#f39c12"/>
      <text x="0" y="4" text-anchor="middle" font-size="8" fill="white">D</text>
      <text x="0" y="-25" text-anchor="middle" font-size="9" fill="#34495e">找到</text>
    </g>
    
    <text x="0" y="40" text-anchor="middle" font-size="10" fill="#7f8c8d">O(log N) 跳数完成查找</text>
  </g>
  
  <!-- DHT特点 -->
  <g transform="translate(750, 550)">
    <rect x="-120" y="-80" width="240" height="160" fill="#f8f9fa" stroke="#95a5a6" stroke-width="2" rx="8"/>
    <text x="0" y="-55" text-anchor="middle" font-size="14" font-weight="bold" fill="#2c3e50">DHT核心特点</text>
    
    <text x="-100" y="-30" font-size="11" fill="#27ae60">✓ 去中心化架构</text>
    <text x="-100" y="-15" font-size="11" fill="#27ae60">✓ 自动负载均衡</text>
    <text x="-100" y="0" font-size="11" fill="#27ae60">✓ 容错性强</text>
    <text x="-100" y="15" font-size="11" fill="#27ae60">✓ 可扩展性好</text>
    <text x="-100" y="30" font-size="11" fill="#27ae60">✓ O(log N)查找复杂度</text>
    <text x="-100" y="45" font-size="11" fill="#27ae60">✓ 动态节点加入/离开</text>
    <text x="-100" y="60" font-size="11" fill="#27ae60">✓ 数据副本机制</text>
  </g>
  
  <!-- 应用场景 -->
  <g transform="translate(750, 200)">
    <rect x="-120" y="-40" width="240" height="80" fill="#e8f6f3" stroke="#16a085" stroke-width="2" rx="8"/>
    <text x="0" y="-20" text-anchor="middle" font-size="14" font-weight="bold" fill="#2c3e50">典型应用</text>
    <text x="-100" y="0" font-size="11" fill="#16a085">• BitTorrent (文件共享)</text>
    <text x="-100" y="15" font-size="11" fill="#16a085">• Chord, Kademlia协议</text>
    <text x="-100" y="30" font-size="11" fill="#16a085">• 分布式存储系统</text>
  </g>
  
  <!-- 箭头标记定义 -->
  <defs>
    <marker id="arrowhead" markerWidth="10" markerHeight="7" refX="9" refY="3.5" orient="auto">
      <polygon points="0 0, 10 3.5, 0 7" fill="#e74c3c"/>
    </marker>
  </defs>
</svg>