<svg viewBox="0 0 900 700" xmlns="http://www.w3.org/2000/svg">
  <!-- Background -->
  <rect width="900" height="700" fill="#f8f9fa"/>
  
  <!-- Title -->
  <text x="450" y="30" text-anchor="middle" font-family="Arial, sans-serif" font-size="24" font-weight="bold" fill="#2c3e50">Minimax 算法原理讲解</text>
  
  <!-- Game Tree Structure -->
  <!-- Root node (MAX player) -->
  <circle cx="450" cy="80" r="20" fill="#4CAF50" stroke="#2E7D32" stroke-width="3"/>
  <text x="450" y="86" text-anchor="middle" font-family="Arial" font-size="12" font-weight="bold" fill="white">MAX</text>
  <text x="450" y="110" text-anchor="middle" font-family="Arial" font-size="10" fill="#2E7D32">根节点 (玩家)</text>
  
  <!-- Level 1 nodes (MIN player) -->
  <circle cx="250" cy="160" r="18" fill="#F44336" stroke="#C62828" stroke-width="2"/>
  <text x="250" y="166" text-anchor="middle" font-family="Arial" font-size="11" font-weight="bold" fill="white">MIN</text>
  <text x="250" y="52" text-anchor="middle" font-family="Arial" font-size="14" font-weight="bold" fill="#C62828">3</text>
  
  <circle cx="450" cy="160" r="18" fill="#F44336" stroke="#C62828" stroke-width="2"/>
  <text x="450" y="166" text-anchor="middle" font-family="Arial" font-size="11" font-weight="bold" fill="white">MIN</text>
  <text x="450" y="52" text-anchor="middle" font-family="Arial" font-size="14" font-weight="bold" fill="#C62828">5</text>
  
  <circle cx="650" cy="160" r="18" fill="#F44336" stroke="#C62828" stroke-width="2"/>
  <text x="650" y="166" text-anchor="middle" font-family="Arial" font-size="11" font-weight="bold" fill="white">MIN</text>
  <text x="650" y="52" text-anchor="middle" font-family="Arial" font-size="14" font-weight="bold" fill="#C62828">2</text>
  
  <!-- Level 2 nodes (MAX player) -->
  <!-- Left subtree -->
  <circle cx="150" cy="240" r="16" fill="#4CAF50" stroke="#2E7D32" stroke-width="2"/>
  <text x="150" y="246" text-anchor="middle" font-family="Arial" font-size="10" font-weight="bold" fill="white">MAX</text>
  <text x="150" y="42" text-anchor="middle" font-family="Arial" font-size="12" fill="#2E7D32">3</text>
  
  <circle cx="350" cy="240" r="16" fill="#4CAF50" stroke="#2E7D32" stroke-width="2"/>
  <text x="350" y="246" text-anchor="middle" font-family="Arial" font-size="10" font-weight="bold" fill="white">MAX</text>
  <text x="350" y="42" text-anchor="middle" font-family="Arial" font-size="12" fill="#2E7D32">12</text>
  
  <!-- Middle subtree -->
  <circle cx="380" cy="240" r="16" fill="#4CAF50" stroke="#2E7D32" stroke-width="2"/>
  <text x="380" y="246" text-anchor="middle" font-family="Arial" font-size="10" font-weight="bold" fill="white">MAX</text>
  <text x="380" y="42" text-anchor="middle" font-family="Arial" font-size="12" fill="#2E7D32">5</text>
  
  <circle cx="520" cy="240" r="16" fill="#4CAF50" stroke="#2E7D32" stroke-width="2"/>
  <text x="520" y="246" text-anchor="middle" font-family="Arial" font-size="10" font-weight="bold" fill="white">MAX</text>
  <text x="520" y="42" text-anchor="middle" font-family="Arial" font-size="12" fill="#2E7D32">6</text>
  
  <!-- Right subtree -->
  <circle cx="600" cy="240" r="16" fill="#4CAF50" stroke="#2E7D32" stroke-width="2"/>
  <text x="600" y="246" text-anchor="middle" font-family="Arial" font-size="10" font-weight="bold" fill="white">MAX</text>
  <text x="600" y="42" text-anchor="middle" font-family="Arial" font-size="12" fill="#2E7D32">2</text>
  
  <circle cx="700" cy="240" r="16" fill="#4CAF50" stroke="#2E7D32" stroke-width="2"/>
  <text x="700" y="246" text-anchor="middle" font-family="Arial" font-size="10" font-weight="bold" fill="white">MAX</text>
  <text x="700" y="42" text-anchor="middle" font-family="Arial" font-size="12" fill="#2E7D32">14</text>
  
  <!-- Terminal nodes (leaf nodes with scores) -->
  <!-- Left subtree leaves -->
  <rect x="110" y="310" width="30" height="20" fill="#FFE082" stroke="#FF8F00" rx="3"/>
  <text x="125" y="323" text-anchor="middle" font-family="Arial" font-size="11" fill="#333">3</text>
  
  <rect x="170" y="310" width="30" height="20" fill="#FFE082" stroke="#FF8F00" rx="3"/>
  <text x="185" y="323" text-anchor="middle" font-family="Arial" font-size="11" fill="#333">17</text>
  
  <rect x="310" y="310" width="30" height="20" fill="#FFE082" stroke="#FF8F00" rx="3"/>
  <text x="325" y="323" text-anchor="middle" font-family="Arial" font-size="11" fill="#333">2</text>
  
  <rect x="370" y="310" width="30" height="20" fill="#FFE082" stroke="#FF8F00" rx="3"/>
  <text x="385" y="323" text-anchor="middle" font-family="Arial" font-size="11" fill="#333">12</text>
  
  <!-- Middle subtree leaves -->
  <rect x="340" y="310" width="30" height="20" fill="#FFE082" stroke="#FF8F00" rx="3"/>
  <text x="355" y="323" text-anchor="middle" font-family="Arial" font-size="11" fill="#333">5</text>
  
  <rect x="400" y="310" width="30" height="20" fill="#FFE082" stroke="#FF8F00" rx="3"/>
  <text x="415" y="323" text-anchor="middle" font-family="Arial" font-size="11" fill="#333">-1</text>
  
  <rect x="480" y="310" width="30" height="20" fill="#FFE082" stroke="#FF8F00" rx="3"/>
  <text x="495" y="323" text-anchor="middle" font-family="Arial" font-size="11" fill="#333">4</text>
  
  <rect x="540" y="310" width="30" height="20" fill="#FFE082" stroke="#FF8F00" rx="3"/>
  <text x="555" y="323" text-anchor="middle" font-family="Arial" font-size="11" fill="#333">6</text>
  
  <!-- Right subtree leaves -->
  <rect x="560" y="310" width="30" height="20" fill="#FFE082" stroke="#FF8F00" rx="3"/>
  <text x="575" y="323" text-anchor="middle" font-family="Arial" font-size="11" fill="#333">-5</text>
  
  <rect x="620" y="310" width="30" height="20" fill="#FFE082" stroke="#FF8F00" rx="3"/>
  <text x="635" y="323" text-anchor="middle" font-family="Arial" font-size="11" fill="#333">2</text>
  
  <rect x="660" y="310" width="30" height="20" fill="#FFE082" stroke="#FF8F00" rx="3"/>
  <text x="675" y="323" text-anchor="middle" font-family="Arial" font-size="11" fill="#333">3</text>
  
  <rect x="720" y="310" width="30" height="20" fill="#FFE082" stroke="#FF8F00" rx="3"/>
  <text x="735" y="323" text-anchor="middle" font-family="Arial" font-size="11" fill="#333">14</text>
  
  <!-- Tree connections -->
  <!-- Root to level 1 -->
  <line x1="450" y1="100" x2="250" y2="140" stroke="#666" stroke-width="2"/>
  <line x1="450" y1="100" x2="450" y2="140" stroke="#666" stroke-width="2"/>
  <line x1="450" y1="100" x2="650" y2="140" stroke="#666" stroke-width="2"/>
  
  <!-- Level 1 to level 2 -->
  <line x1="250" y1="178" x2="150" y2="222" stroke="#666" stroke-width="2"/>
  <line x1="250" y1="178" x2="350" y2="222" stroke="#666" stroke-width="2"/>
  
  <line x1="450" y1="178" x2="380" y2="222" stroke="#666" stroke-width="2"/>
  <line x1="450" y1="178" x2="520" y2="222" stroke="#666" stroke-width="2"/>
  
  <line x1="650" y1="178" x2="600" y2="222" stroke="#666" stroke-width="2"/>
  <line x1="650" y1="178" x2="700" y2="222" stroke="#666" stroke-width="2"/>
  
  <!-- Level 2 to terminal nodes -->
  <line x1="150" y1="256" x2="125" y2="310" stroke="#666" stroke-width="1"/>
  <line x1="150" y1="256" x2="185" y2="310" stroke="#666" stroke-width="1"/>
  
  <line x1="350" y1="256" x2="325" y2="310" stroke="#666" stroke-width="1"/>
  <line x1="350" y1="256" x2="385" y2="310" stroke="#666" stroke-width="1"/>
  
  <line x1="380" y1="256" x2="355" y2="310" stroke="#666" stroke-width="1"/>
  <line x1="380" y1="256" x2="415" y2="310" stroke="#666" stroke-width="1"/>
  
  <line x1="520" y1="256" x2="495" y2="310" stroke="#666" stroke-width="1"/>
  <line x1="520" y1="256" x2="555" y2="310" stroke="#666" stroke-width="1"/>
  
  <line x1="600" y1="256" x2="575" y2="310" stroke="#666" stroke-width="1"/>
  <line x1="600" y1="256" x2="635" y2="310" stroke="#666" stroke-width="1"/>
  
  <line x1="700" y1="256" x2="675" y2="310" stroke="#666" stroke-width="1"/>
  <line x1="700" y1="256" x2="735" y2="310" stroke="#666" stroke-width="1"/>
  
  <!-- Optimal path highlighting -->
  <line x1="450" y1="100" x2="450" y2="140" stroke="#2196F3" stroke-width="4" opacity="0.7"/>
  <line x1="450" y1="178" x2="380" y2="222" stroke="#2196F3" stroke-width="4" opacity="0.7"/>
  <line x1="380" y1="256" x2="355" y2="310" stroke="#2196F3" stroke-width="4" opacity="0.7"/>
  
  <!-- Final result at root -->
  <text x="450" y="52" text-anchor="middle" font-family="Arial" font-size="16" font-weight="bold" fill="#2196F3">5</text>
  <text x="450" y="130" text-anchor="middle" font-family="Arial" font-size="8" fill="#2196F3">最优值</text>
  
  <!-- Algorithm explanation -->
  <rect x="50" y="370" width="800" height="160" fill="#E3F2FD" stroke="#1976D2" stroke-width="2" rx="5"/>
  <text x="60" y="395" font-family="Arial" font-size="16" font-weight="bold" fill="#1976D2">Minimax 算法工作原理：</text>
  
  <text x="60" y="415" font-family="Arial" font-size="12" fill="#333">1. MAX 玩家（绿色）：选择能使自己得分最大化的移动</text>
  <text x="60" y="430" font-family="Arial" font-size="12" fill="#333">2. MIN 玩家（红色）：选择能使对手得分最小化的移动</text>
  <text x="60" y="445" font-family="Arial" font-size="12" fill="#333">3. 递归评估：从叶子节点向上传播最优值</text>
  <text x="60" y="460" font-family="Arial" font-size="12" fill="#333">4. 终端状态：使用评分函数对游戏结束状态进行评估</text>
  <text x="60" y="475" font-family="Arial" font-size="12" fill="#333">5. 假设双方都是理性玩家，选择对自己最有利的策略</text>
  <text x="60" y="490" font-family="Arial" font-size="12" fill="#333">6. 优化：Alpha-Beta 剪枝可以跳过不必要的分支，提高效率</text>
  <text x="60" y="505" font-family="Arial" font-size="12" fill="#333">7. 应用：国际象棋、围棋、井字棋等双人对弈游戏</text>
  
  <!-- Legend -->
  <rect x="50" y="550" width="400" height="100" fill="#fff" stroke="#ddd" stroke-width="1" rx="5"/>
  <text x="60" y="570" font-family="Arial" font-size="14" font-weight="bold" fill="#333">图例说明：</text>
  
  <circle cx="80" cy="585" r="12" fill="#4CAF50" stroke="#2E7D32" stroke-width="2"/>
  <text x="100" y="590" font-family="Arial" font-size="11" fill="#333">MAX 玩家节点（最大化）</text>
  
  <circle cx="280" cy="585" r="12" fill="#F44336" stroke="#C62828" stroke-width="2"/>
  <text x="300" y="590" font-family="Arial" font-size="11" fill="#333">MIN 玩家节点（最小化）</text>
  
  <rect x="74" y="605" width="20" height="12" fill="#FFE082" stroke="#FF8F00" rx="2"/>
  <text x="100" y="614" font-family="Arial" font-size="11" fill="#333">终端节点（评分）</text>
  
  <line x1="280" y1="610" x2="320" y2="610" stroke="#2196F3" stroke-width="3"/>
  <text x="325" y="614" font-family="Arial" font-size="11" fill="#333">最优路径</text>
  
  <!-- Alpha-Beta Pruning example -->
  <rect x="500" y="550" width="350" height="100" fill="#FFF3E0" stroke="#FF9800" stroke-width="1" rx="5"/>
  <text x="510" y="570" font-family="Arial" font-size="14" font-weight="bold" fill="#F57C00">Alpha-Beta 剪枝优化：</text>
  <text x="510" y="590" font-family="Arial" font-size="11" fill="#333">• Alpha (α)：MAX 玩家的最好选择下界</text>
  <text x="510" y="605" font-family="Arial" font-size="11" fill="#333">• Beta (β)：MIN 玩家的最好选择上界</text>
  <text x="510" y="620" font-family="Arial" font-size="11" fill="#333">• 当 α ≥ β 时，可以剪枝跳过后续分支</text>
  <text x="510" y="635" font-family="Arial" font-size="11" fill="#333">• 大幅减少搜索空间，提高算法效率</text>
  
  <!-- Watermark -->
  <text x="450" y="350" text-anchor="middle" font-family="Arial" font-size="20" font-weight="bold" fill="#E0E0E0" opacity="0.4">偷偷星球</text>
</svg>