<svg xmlns="http://www.w3.org/2000/svg" viewBox="0 0 800 500">
    <!-- 背景 -->
    <rect width="800" height="500" fill="#f8f9fa"/>
    
    <!-- 水印 -->
    <text x="400" y="250" text-anchor="middle" font-size="72" fill="#33333322" transform="rotate(-30 400 250)" font-weight="bold">
        偷偷星球
    </text>

    <!-- 标题 -->
    <text x="400" y="50" text-anchor="middle" font-size="24" font-weight="bold" fill="#333">
        先到先服务调度算法 (FCFS)
    </text>

    <!-- CPU -->
    <rect x="500" y="150" width="120" height="80" fill="#e3f2fd" stroke="#1976d2" stroke-width="3" rx="10"/>
    <text x="560" y="195" text-anchor="middle" font-size="20" fill="#1976d2" font-weight="bold">CPU</text>

    <!-- 就绪队列 -->
    <rect x="100" y="150" width="350" height="80" fill="#fff" stroke="#666" stroke-width="2" rx="5"/>
    <text x="275" y="140" text-anchor="middle" font-size="16" fill="#333">就绪队列（按到达顺序）</text>

    <!-- 进程示例 -->
    <g transform="translate(120,160)">
        <rect width="60" height="60" fill="#4CAF50" rx="5"/>
        <text x="30" y="30" text-anchor="middle" fill="white">P1</text>
        <text x="30" y="45" text-anchor="middle" fill="white" font-size="12">先到</text>
    </g>

    <g transform="translate(190,160)">
        <rect width="60" height="60" fill="#2196F3" rx="5"/>
        <text x="30" y="30" text-anchor="middle" fill="white">P2</text>
    </g>

    <g transform="translate(260,160)">
        <rect width="60" height="60" fill="#FFC107" rx="5"/>
        <text x="30" y="30" text-anchor="middle" fill="white">P3</text>
    </g>

    <g transform="translate(330,160)">
        <rect width="60" height="60" fill="#FF5722" rx="5"/>
        <text x="30" y="30" text-anchor="middle" fill="white">P4</text>
        <text x="30" y="45" text-anchor="middle" fill="white" font-size="12">后到</text>
    </g>

    <!-- 调度箭头 -->
    <path d="M 460 190 L 490 190" 
          fill="none" stroke="#333" stroke-width="2" marker-end="url(#arrowhead)"/>

    <!-- 时间轴 -->
    <line x1="100" y1="300" x2="700" y2="300" stroke="#666" stroke-width="2"/>
    <text x="400" y="290" text-anchor="middle" font-size="14" fill="#666">时间轴</text>
    
    <!-- 进程执行时间图 -->
    <rect x="100" y="280" width="150" height="40" fill="#4CAF50" opacity="0.8"/>
    <rect x="250" y="280" width="100" height="40" fill="#2196F3" opacity="0.8"/>
    <rect x="350" y="280" width="200" height="40" fill="#FFC107" opacity="0.8"/>
    <rect x="550" y="280" width="150" height="40" fill="#FF5722" opacity="0.8"/>
    
    <text x="175" y="340" text-anchor="middle" font-size="12">P1执行</text>
    <text x="300" y="340" text-anchor="middle" font-size="12">P2执行</text>
    <text x="450" y="340" text-anchor="middle" font-size="12">P3执行</text>
    <text x="625" y="340" text-anchor="middle" font-size="12">P4执行</text>

    <!-- 箭头标记定义 -->
    <defs>
        <marker id="arrowhead" markerWidth="10" markerHeight="7" 
                refX="9" refY="3.5" orient="auto">
            <polygon points="0 0, 10 3.5, 0 7" fill="#666"/>
        </marker>
    </defs>

    <!-- 说明文字 -->
    <g transform="translate(100,380)">
        <text x="0" y="0" font-size="14" fill="#333">优点：</text>
        <text x="0" y="20" font-size="14" fill="#666">• 实现简单</text>
        <text x="0" y="40" font-size="14" fill="#666">• 公平性好</text>
    </g>

    <g transform="translate(400,380)">
        <text x="0" y="0" font-size="14" fill="#333">缺点：</text>
        <text x="0" y="20" font-size="14" fill="#666">• CPU利用率可能较低</text>
        <text x="0" y="40" font-size="14" fill="#666">• 平均等待时间可能较长</text>
        <text x="0" y="60" font-size="14" fill="#666">• 不支持优先级调度</text>
    </g>

    <!-- "拖尾效应"示意 -->
    <path d="M 100 250 Q 400 250, 700 250" 
          fill="none" stroke="#f44336" stroke-width="2" stroke-dasharray="5,5"/>
    <text x="400" y="240" text-anchor="middle" font-size="12" fill="#f44336">拖尾效应：短进程需等待长进程完成</text>
</svg>
