<svg xmlns="http://www.w3.org/2000/svg" viewBox="0 0 800 500">
    <!-- 背景 -->
    <rect width="800" height="500" fill="#f5f5f5"/>
    
    <!-- 中间大水印 -->
    <text x="400" y="250" text-anchor="middle" font-size="80" fill="#33333355" 
          transform="rotate(-30, 400, 250)" 
          style="font-weight: bold;">偷偷星球</text>
    
    <!-- 左上角水印 -->
    <text x="80" y="40" text-anchor="middle" font-size="24" fill="#33333344" 
          transform="rotate(-30, 80, 40)" 
          style="font-weight: bold;">偷偷星球</text>
    
    <!-- 右下角水印 -->
    <text x="720" y="460" text-anchor="middle" font-size="24" fill="#33333344" 
          transform="rotate(-30, 720, 460)" 
          style="font-weight: bold;">偷偷星球</text>
    
    <!-- 标题 -->
    <text x="400" y="40" text-anchor="middle" font-size="28" fill="#1a365d" font-weight="bold">消息队列 (Message Queue)</text>
    
    <!-- 左侧发送进程组 -->
    <g transform="translate(50,100)">
        <rect x="0" y="0" width="120" height="60" rx="10" fill="#3498db"/>
        <text x="60" y="35" text-anchor="middle" fill="white" font-weight="bold">发送进程 A</text>
        
        <rect x="0" y="100" width="120" height="60" rx="10" fill="#3498db"/>
        <text x="60" y="135" text-anchor="middle" fill="white" font-weight="bold">发送进程 B</text>
        
        <rect x="0" y="200" width="120" height="60" rx="10" fill="#3498db"/>
        <text x="60" y="235" text-anchor="middle" fill="white" font-weight="bold">发送进程 C</text>
    </g>
    
    <!-- 消息队列 -->
    <g transform="translate(300,100)">
        <rect x="0" y="0" width="200" height="260" rx="10" fill="#e74c3c"/>
        <text x="100" y="30" text-anchor="middle" fill="white" font-weight="bold">消息队列</text>
        
        <!-- 队列中的消息 -->
        <rect x="20" y="50" width="160" height="40" rx="5" fill="white"/>
        <text x="100" y="75" text-anchor="middle" fill="#333">消息 1 (优先级: 高)</text>
        
        <rect x="20" y="110" width="160" height="40" rx="5" fill="white"/>
        <text x="100" y="135" text-anchor="middle" fill="#333">消息 2 (优先级: 中)</text>
        
        <rect x="20" y="170" width="160" height="40" rx="5" fill="white"/>
        <text x="100" y="195" text-anchor="middle" fill="#333">消息 3 (优先级: 低)</text>
    </g>
    
    <!-- 右侧接收进程组 -->
    <g transform="translate(630,100)">
        <rect x="0" y="0" width="120" height="60" rx="10" fill="#2ecc71"/>
        <text x="60" y="35" text-anchor="middle" fill="white" font-weight="bold">接收进程 X</text>
        
        <rect x="0" y="100" width="120" height="60" rx="10" fill="#2ecc71"/>
        <text x="60" y="135" text-anchor="middle" fill="white" font-weight="bold">接收进程 Y</text>
        
        <rect x="0" y="200" width="120" height="60" rx="10" fill="#2ecc71"/>
        <text x="60" y="235" text-anchor="middle" fill="white" font-weight="bold">接收进程 Z</text>
    </g>
    
    <!-- 箭头 -->
    <g>
        <!-- 左侧箭头 -->
        <path d="M170,130 L300,130" stroke="#000" stroke-width="2" marker-end="url(#arrowhead)"/>
        <path d="M170,230 L300,230" stroke="#000" stroke-width="2" marker-end="url(#arrowhead)"/>
        <path d="M170,330 L300,330" stroke="#000" stroke-width="2" marker-end="url(#arrowhead)"/>
        
        <!-- 右侧箭头 -->
        <path d="M500,130 L630,130" stroke="#000" stroke-width="2" marker-end="url(#arrowhead)"/>
        <path d="M500,230 L630,230" stroke="#000" stroke-width="2" marker-end="url(#arrowhead)"/>
        <path d="M500,330 L630,330" stroke="#000" stroke-width="2" marker-end="url(#arrowhead)"/>
    </g>
    
    <!-- 特性说明 -->
    <g transform="translate(100,400)">
        <rect x="0" y="0" width="600" height="80" rx="5" fill="white" stroke="#666"/>
        <text x="10" y="25" font-size="16" fill="#333" font-weight="bold">核心特性：</text>
        <text x="20" y="50" font-size="14" fill="#666">• 支持多对多通信模式</text>
        <text x="200" y="50" font-size="14" fill="#666">• 基于消息的异步通信</text>
        <text x="380" y="50" font-size="14" fill="#666">• 消息按优先级排队</text>
        <text x="20" y="70" font-size="14" fill="#666">• 无需共享内存</text>
        <text x="200" y="70" font-size="14" fill="#666">• 由内核维护队列</text>
        <text x="380" y="70" font-size="14" fill="#666">• 持久化存储消息</text>
    </g>
    
    <!-- 箭头定义 -->
    <defs>
        <marker id="arrowhead" markerWidth="10" markerHeight="7" 
                refX="9" refY="3.5" orient="auto">
            <polygon points="0 0, 10 3.5, 0 7" fill="#000"/>
        </marker>
    </defs>
</svg>
