<svg xmlns="http://www.w3.org/2000/svg" viewBox="0 0 800 500">
    <!-- 背景 -->
    <rect width="800" height="500" fill="#f8f9fa"/>
    
    <!-- 水印 -->
    <text x="400" y="250" text-anchor="middle" font-size="72" fill="#33333322" transform="rotate(-30 400 250)" font-weight="bold">
        偷偷星球
    </text>

    <!-- 标题 -->
    <text x="400" y="50" text-anchor="middle" font-size="24" font-weight="bold" fill="#333">
        优先级调度算法
    </text>

    <!-- CPU -->
    <rect x="500" y="200" width="120" height="100" fill="#e3f2fd" stroke="#1976d2" stroke-width="3" rx="10"/>
    <text x="560" y="255" text-anchor="middle" font-size="20" fill="#1976d2" font-weight="bold">CPU</text>

    <!-- 优先级队列 -->
    <!-- 高优先级 -->
    <rect x="150" y="120" width="250" height="60" fill="#ff7043" stroke="#e64a19" stroke-width="2" rx="5"/>
    <text x="100" y="155" text-anchor="end" font-weight="bold">优先级 1</text>
    <circle cx="180" cy="150" r="20" fill="#fff"/>
    <text x="180" y="155" text-anchor="middle">P1</text>
    <circle cx="230" cy="150" r="20" fill="#fff"/>
    <text x="230" y="155" text-anchor="middle">P2</text>

    <!-- 中优先级 -->
    <rect x="150" y="220" width="250" height="60" fill="#ffa726" stroke="#f57c00" stroke-width="2" rx="5"/>
    <text x="100" y="255" text-anchor="end" font-weight="bold">优先级 2</text>
    <circle cx="180" cy="250" r="20" fill="#fff"/>
    <text x="180" y="255" text-anchor="middle">P3</text>

    <!-- 低优先级 -->
    <rect x="150" y="320" width="250" height="60" fill="#ffca28" stroke="#ffa000" stroke-width="2" rx="5"/>
    <text x="100" y="355" text-anchor="end" font-weight="bold">优先级 3</text>
    <circle cx="180" cy="350" r="20" fill="#fff"/>
    <text x="180" y="355" text-anchor="middle">P4</text>
    <circle cx="230" cy="350" r="20" fill="#fff"/>
    <text x="230" y="355" text-anchor="middle">P5</text>

    <!-- 调度箭头 -->
    <path d="M 420 150 C 460 150, 460 250, 490 250" 
          fill="none" stroke="#333" stroke-width="2" marker-end="url(#arrowhead)"/>

    <!-- 老化箭头 -->
    <path d="M 100 380 C 50 380, 50 200, 100 200" 
          fill="none" stroke="#666" stroke-dasharray="5,5" stroke-width="2" marker-end="url(#arrowhead)"/>
    <text x="40" y="290" text-anchor="middle" font-size="14" fill="#666" transform="rotate(-90 40 290)">
        老化（优先级提升）
    </text>

    <!-- 箭头标记定义 -->
    <defs>
        <marker id="arrowhead" markerWidth="10" markerHeight="7" 
                refX="9" refY="3.5" orient="auto">
            <polygon points="0 0, 10 3.5, 0 7" fill="#666"/>
        </marker>
    </defs>

    <!-- 说明文字 -->
    <text x="400" y="430" text-anchor="middle" font-size="14" fill="#666">
        高优先级进程优先执行，低优先级进程可能出现饿死
    </text>
    <text x="400" y="450" text-anchor="middle" font-size="14" fill="#666">
        通过老化机制提升等待进程的优先级，防止饿死
    </text>

    <!-- 新进程提示 -->
    <path d="M 650 100 L 650 180" 
          fill="none" stroke="#f44336" stroke-width="2" stroke-dasharray="5,5" marker-end="url(#arrowhead)"/>
    <text x="650" y="90" text-anchor="middle" fill="#f44336" font-size="14">新高优先级进程</text>
</svg>
