<svg viewBox="0 0 800 400" xmlns="http://www.w3.org/2000/svg">
    <!-- 添加水印 -->
    <g opacity="0.2">
        <!-- 左上角水印 -->
        <text x="20" y="30" font-size="16" fill="#666">偷偷星球</text>
        <!-- 中间水印 -->
        <text x="400" y="200" text-anchor="middle" font-size="24" fill="#666">偷偷星球</text>
        <!-- 右下角水印 -->
        <text x="750" y="380" text-anchor="end" font-size="16" fill="#666">偷偷星球</text>
    </g>
    
    <!-- 原有内容保持不变 -->
    <text x="400" y="30" text-anchor="middle" font-size="20" font-weight="bold">段页式管理地址转换过程</text>
    
    <!-- 逻辑地址框 -->
    <rect x="50" y="60" width="200" height="60" fill="#E8F4F9" stroke="#333" />
    <text x="150" y="85" text-anchor="middle" font-size="14">逻辑地址</text>
    <rect x="60" y="90" width="60" height="25" fill="#AED6F1" stroke="#333" />
    <rect x="120" y="90" width="60" height="25" fill="#D4E6F1" stroke="#333" />
    <rect x="180" y="90" width="60" height="25" fill="#EBF5FB" stroke="#333" />
    <text x="90" y="107" text-anchor="middle" font-size="12">段号</text>
    <text x="150" y="107" text-anchor="middle" font-size="12">页号</text>
    <text x="210" y="107" text-anchor="middle" font-size="12">页内偏移</text>

    <!-- 段表 -->
    <rect x="300" y="80" width="150" height="120" fill="#E8F4F9" stroke="#333" />
    <text x="375" y="100" text-anchor="middle" font-size="14">段表</text>
    <line x1="300" y1="110" x2="450" y2="110" stroke="#333" />
    <text x="320" y="130" font-size="12">段号0</text>
    <text x="320" y="150" font-size="12">段号1</text>
    <text x="320" y="170" font-size="12">段号2</text>
    <text x="390" y="130" font-size="12">页表基址</text>
    <text x="390" y="150" font-size="12">页表基址</text>
    <text x="390" y="170" font-size="12">页表基址</text>

    <!-- 页表 -->
    <rect x="500" y="80" width="150" height="120" fill="#E8F4F9" stroke="#333" />
    <text x="575" y="100" text-anchor="middle" font-size="14">页表</text>
    <line x1="500" y1="110" x2="650" y2="110" stroke="#333" />
    <text x="520" y="130" font-size="12">页号0</text>
    <text x="520" y="150" font-size="12">页号1</text>
    <text x="520" y="170" font-size="12">页号2</text>
    <text x="590" y="130" font-size="12">物理页号</text>
    <text x="590" y="150" font-size="12">物理页号</text>
    <text x="590" y="170" font-size="12">物理页号</text>

    <!-- 物理内存 -->
    <rect x="700" y="60" width="80" height="200" fill="#E8F4F9" stroke="#333" />
    <text x="740" y="85" text-anchor="middle" font-size="14">物理内存</text>
    <line x1="700" y1="95" x2="780" y2="95" stroke="#333" />
    <rect x="705" y="100" width="70" height="20" fill="#D4E6F1" stroke="#333" />
    <rect x="705" y="120" width="70" height="20" fill="#D4E6F1" stroke="#333" />
    <rect x="705" y="140" width="70" height="20" fill="#D4E6F1" stroke="#333" />
    <rect x="705" y="160" width="70" height="20" fill="#AED6F1" stroke="#333" />
    <rect x="705" y="180" width="70" height="20" fill="#D4E6F1" stroke="#333" />
    <rect x="705" y="200" width="70" height="20" fill="#D4E6F1" stroke="#333" />
    <rect x="705" y="220" width="70" height="20" fill="#D4E6F1" stroke="#333" />

    <!-- 箭头和流程 -->
    <defs>
        <marker id="arrowhead" markerWidth="10" markerHeight="7" refX="9" refY="3.5" orient="auto">
            <polygon points="0 0, 10 3.5, 0 7" fill="#333"/>
        </marker>
    </defs>
    
    <line x1="250" y1="110" x2="290" y2="110" stroke="#333" marker-end="url(#arrowhead)" stroke-width="2"/>
    <line x1="450" y1="110" x2="490" y2="110" stroke="#333" marker-end="url(#arrowhead)" stroke-width="2"/>
    <line x1="650" y1="110" x2="690" y2="110" stroke="#333" marker-end="url(#arrowhead)" stroke-width="2"/>

    <!-- 步骤说明 -->
    <text x="50" y="300" font-size="12">1. 段号→查段表→获取页表基址</text>
    <text x="50" y="320" font-size="12">2. 页号→查页表→获取物理页号</text>
    <text x="50" y="340" font-size="12">3. 物理页号+页内偏移→最终物理地址</text>
</svg>
