<svg xmlns="http://www.w3.org/2000/svg" viewBox="0 0 800 500">
    <!-- 定义箭头 -->
    <defs>
        <marker id="arrowhead" markerWidth="10" markerHeight="7" refX="9" refY="3.5" orient="auto">
            <polygon points="0 0, 10 3.5, 0 7" fill="#333"/>
        </marker>
    </defs>

    <!-- 水印 -->
    <text x="400" y="250" font-size="48" fill="rgba(200,200,200,0.3)" text-anchor="middle" transform="rotate(-30, 400, 250)" style="font-family: Arial, sans-serif;">偷偷星球</text>

    <!-- 逻辑地址框 -->
    <rect x="50" y="50" width="200" height="60" fill="#E8F4F9" stroke="#333" stroke-width="2"/>
    <text x="70" y="80" font-size="14" fill="#333">逻辑地址</text>
    <line x1="150" y1="50" x2="150" y2="110" stroke="#333" stroke-width="1"/>
    <text x="80" y="100" font-size="14" fill="#333">段号: 2</text>
    <text x="160" y="100" font-size="14" fill="#333">偏移量: 150</text>

    <!-- 段表 -->
    <rect x="300" y="30" width="200" height="120" fill="#F9E8E8" stroke="#333" stroke-width="2"/>
    <text x="370" y="50" font-size="14" font-weight="bold" fill="#333">段表</text>
    <line x1="300" y1="60" x2="500" y2="60" stroke="#333" stroke-width="1"/>
    <text x="310" y="80" font-size="12" fill="#333">段号  基址    长度</text>
    <text x="310" y="100" font-size="12" fill="#333">1      1000    500</text>
    <text x="310" y="120" font-size="12" fill="#333">2      2000    300</text>
    <text x="310" y="140" font-size="12" fill="#333">3      2500    400</text>

    <!-- 物理内存 -->
    <rect x="600" y="30" width="150" height="400" fill="#E8F9E8" stroke="#333" stroke-width="2"/>
    <text x="640" y="50" font-size="14" font-weight="bold" fill="#333">物理内存</text>
    
    <!-- 内存分段 -->
    <rect x="610" y="70" width="130" height="80" fill="#FFE4E1" stroke="#333" stroke-width="1"/>
    <text x="620" y="100" font-size="12" fill="#333">代码段</text>
    <text x="700" y="100" font-size="12" fill="#333">1000</text>

    <rect x="610" y="170" width="130" height="60" fill="#E6E6FA" stroke="#333" stroke-width="1"/>
    <text x="620" y="200" font-size="12" fill="#333">数据段</text>
    <text x="700" y="200" font-size="12" fill="#333">2000</text>

    <!-- 目标位置标记 -->
    <rect x="610" y="220" width="130" height="2" fill="red" stroke="red" stroke-width="2"/>
    <text x="745" y="225" font-size="12" fill="red">2150</text>

    <rect x="610" y="250" width="130" height="70" fill="#98FB98" stroke="#333" stroke-width="1"/>
    <text x="620" y="280" font-size="12" fill="#333">堆栈段</text>
    <text x="700" y="280" font-size="12" fill="#333">2500</text>

    <!-- 箭头和计算过程 -->
    <path d="M 250 80 L 290 80" stroke="#333" stroke-width="2" marker-end="url(#arrowhead)"/>
    <path d="M 500 80 L 590 200" stroke="#333" stroke-width="2" marker-end="url(#arrowhead)"/>

    <!-- 计算说明 -->
    <text x="50" y="450" font-size="14" fill="#333">物理地址 = 段基址(2000) + 偏移量(150) = 2150</text>
</svg>
