<svg xmlns="http://www.w3.org/2000/svg" viewBox="0 0 800 500">
    <!-- 背景 -->
    <rect width="800" height="500" fill="#f5f5f5"/>
    
    <!-- 水印 -->
    <!-- 中间大水印 -->
    <text x="400" y="250" text-anchor="middle" font-size="80" fill="#33333355" 
          transform="rotate(-30, 400, 250)" 
          style="font-weight: bold;">偷偷星球</text>
    
    <!-- 左上角水印 -->
    <text x="80" y="40" text-anchor="middle" font-size="24" fill="#33333344" 
          transform="rotate(-30, 80, 40)" 
          style="font-weight: bold;">偷偷星球</text>
    
    <!-- 右下角水印 -->
    <text x="720" y="460" text-anchor="middle" font-size="24" fill="#33333344" 
          transform="rotate(-30, 720, 460)" 
          style="font-weight: bold;">偷偷星球</text>
    
    <!-- 标题 -->
    <text x="400" y="40" text-anchor="middle" font-size="28" fill="#1a365d" font-weight="bold">共享内存 (Shared Memory)</text>
    
    <!-- 进程组 -->
    <g transform="translate(50,80)">
        <!-- Process 1 -->
        <rect x="0" y="0" width="150" height="80" rx="10" fill="#3498db"/>
        <text x="75" y="35" text-anchor="middle" fill="white" font-weight="bold">进程 1</text>
        <text x="75" y="55" text-anchor="middle" fill="white" font-size="12">(创建共享内存)</text>
        
        <!-- Process 2 -->
        <rect x="0" y="120" width="150" height="80" rx="10" fill="#2ecc71"/>
        <text x="75" y="165" text-anchor="middle" fill="white" font-weight="bold">进程 2</text>
        
        <!-- Process 3 -->
        <rect x="0" y="240" width="150" height="80" rx="10" fill="#9b59b6"/>
        <text x="75" y="285" text-anchor="middle" fill="white" font-weight="bold">进程 3</text>
    </g>
    
    <!-- 共享内存区域 -->
    <g transform="translate(300,80)">
        <rect x="0" y="0" width="200" height="320" rx="10" fill="#e74c3c"/>
        <text x="100" y="30" text-anchor="middle" fill="white" font-weight="bold">共享内存区域</text>
        
        <!-- 内存块 -->
        <rect x="20" y="50" width="160" height="60" rx="5" fill="white"/>
        <text x="100" y="85" text-anchor="middle" fill="#333">数据区块 A</text>
        
        <rect x="20" y="130" width="160" height="60" rx="5" fill="white"/>
        <text x="100" y="165" text-anchor="middle" fill="#333">数据区块 B</text>
        
        <rect x="20" y="210" width="160" height="60" rx="5" fill="white"/>
        <text x="100" y="245" text-anchor="middle" fill="#333">数据区块 C</text>
    </g>
    
    <!-- 信号量同步机制 -->
    <g transform="translate(600,80)">
        <rect x="0" y="0" width="150" height="320" rx="10" fill="#34495e"/>
        <text x="75" y="30" text-anchor="middle" fill="white" font-weight="bold">信号量控制</text>
        
        <!-- 信号量状态 -->
        <rect x="20" y="50" width="110" height="40" rx="5" fill="#f1c40f"/>
        <text x="75" y="75" text-anchor="middle" fill="#333">读取锁</text>
        
        <rect x="20" y="110" width="110" height="40" rx="5" fill="#e67e22"/>
        <text x="75" y="135" text-anchor="middle" fill="#333">写入锁</text>
        
        <rect x="20" y="170" width="110" height="40" rx="5" fill="#95a5a6"/>
        <text x="75" y="195" text-anchor="middle" fill="#333">互斥锁</text>
    </g>
    
    <!-- 连接线和箭头 -->
    <g>
        <!-- 进程到共享内存的连接 -->
        <path d="M200,120 L300,120" stroke="#000" stroke-width="2" marker-end="url(#arrowhead)"/>
        <path d="M200,160 L300,160" stroke="#000" stroke-width="2" marker-end="url(#arrowhead)"/>
        <path d="M200,280 L300,280" stroke="#000" stroke-width="2" marker-end="url(#arrowhead)"/>
        
        <!-- 共享内存到信号量的连接 -->
        <path d="M500,120 L600,120" stroke="#000" stroke-width="2" stroke-dasharray="5,5"/>
        <path d="M500,160 L600,160" stroke="#000" stroke-width="2" stroke-dasharray="5,5"/>
        <path d="M500,280 L600,280" stroke="#000" stroke-width="2" stroke-dasharray="5,5"/>
    </g>
    
    <!-- 底部说明 -->
    <g transform="translate(50,420)">
        <rect x="0" y="0" width="700" height="60" rx="5" fill="white" stroke="#666"/>
        <text x="10" y="20" font-size="14" fill="#333" font-weight="bold">特点说明：</text>
        <text x="20" y="40" font-size="12" fill="#666">• 高效数据共享：直接内存访问，无需数据拷贝</text>
        <text x="250" y="40" font-size="12" fill="#666">• 需要同步机制：使用信号量避免竞争条件</text>
        <text x="480" y="40" font-size="12" fill="#666">• 适用场景：大量数据交换的高性能场合</text>
    </g>
    
    <!-- 箭头定义 -->
    <defs>
        <marker id="arrowhead" markerWidth="10" markerHeight="7" 
                refX="9" refY="3.5" orient="auto">
            <polygon points="0 0, 10 3.5, 0 7" fill="#000"/>
        </marker>
    </defs>
</svg>
