<svg xmlns="http://www.w3.org/2000/svg" viewBox="0 0 800 500">
    <!-- 背景 -->
    <rect width="800" height="500" fill="#f8f9fa"/>
    
    <!-- 水印 -->
    <text x="400" y="250" text-anchor="middle" font-size="72" fill="#33333322" transform="rotate(-30 400 250)" font-weight="bold">
        偷偷星球
    </text>

    <!-- 标题 -->
    <text x="400" y="50" text-anchor="middle" font-size="24" font-weight="bold" fill="#333">
        短作业优先调度算法 (SJF)
    </text>

    <!-- CPU -->
    <rect x="500" y="200" width="120" height="100" fill="#e3f2fd" stroke="#1976d2" stroke-width="3" rx="10"/>
    <text x="560" y="255" text-anchor="middle" font-size="20" fill="#1976d2" font-weight="bold">CPU</text>

    <!-- 就绪队列 -->
    <rect x="100" y="200" width="350" height="100" fill="#fff" stroke="#666" stroke-width="2" rx="5"/>
    <text x="275" y="190" text-anchor="middle" font-size="16" fill="#333">就绪队列（按预计运行时间排序）</text>

    <!-- 进程示例 -->
    <g transform="translate(120,220)">
        <rect width="60" height="60" fill="#4CAF50" rx="5"/>
        <text x="30" y="30" text-anchor="middle" fill="white">P1</text>
        <text x="30" y="45" text-anchor="middle" fill="white" font-size="12">2ms</text>
    </g>

    <g transform="translate(190,220)">
        <rect width="60" height="60" fill="#2196F3" rx="5"/>
        <text x="30" y="30" text-anchor="middle" fill="white">P2</text>
        <text x="30" y="45" text-anchor="middle" fill="white" font-size="12">4ms</text>
    </g>

    <g transform="translate(260,220)">
        <rect width="60" height="60" fill="#FFC107" rx="5"/>
        <text x="30" y="30" text-anchor="middle" fill="white">P3</text>
        <text x="30" y="45" text-anchor="middle" fill="white" font-size="12">8ms</text>
    </g>

    <g transform="translate(330,220)">
        <rect width="60" height="60" fill="#FF5722" rx="5"/>
        <text x="30" y="30" text-anchor="middle" fill="white">P4</text>
        <text x="30" y="45" text-anchor="middle" fill="white" font-size="12">15ms</text>
    </g>

    <!-- 调度箭头 -->
    <path d="M 460 250 L 490 250" 
          fill="none" stroke="#333" stroke-width="2" marker-end="url(#arrowhead)"/>

    <!-- 新短进程到达 -->
    <path d="M 275 120 L 275 190" 
          fill="none" stroke="#f44336" stroke-width="2" stroke-dasharray="5,5" marker-end="url(#arrowhead)"/>
    <g transform="translate(245,70)">
        <rect width="60" height="60" fill="#9C27B0" rx="5"/>
        <text x="30" y="30" text-anchor="middle" fill="white">P5</text>
        <text x="30" y="45" text-anchor="middle" fill="white" font-size="12">1ms</text>
    </g>

    <!-- 箭头标记定义 -->
    <defs>
        <marker id="arrowhead" markerWidth="10" markerHeight="7" 
                refX="9" refY="3.5" orient="auto">
            <polygon points="0 0, 10 3.5, 0 7" fill="#666"/>
        </marker>
    </defs>

    <!-- 说明文字 -->
    <g transform="translate(100,380)">
        <text x="0" y="0" font-size="14" fill="#333">优点：</text>
        <text x="0" y="20" font-size="14" fill="#666">• 最小化平均等待时间</text>
        <text x="0" y="40" font-size="14" fill="#666">• 提高系统吞吐量</text>
    </g>

    <g transform="translate(500,380)">
        <text x="0" y="0" font-size="14" fill="#333">缺点：</text>
        <text x="0" y="20" font-size="14" fill="#666">• 需要预知进程运行时间</text>
        <text x="0" y="40" font-size="14" fill="#666">• 长进程可能发生饥饿</text>
    </g>
</svg>
