<svg xmlns="http://www.w3.org/2000/svg" viewBox="0 0 800 400">
    <!-- 背景 -->
    <rect width="800" height="400" fill="#f8f9fa"/>
    
    <!-- 进程组 -->
    <g transform="translate(50,50)">
        <rect x="0" y="0" width="120" height="60" rx="10" fill="#4d94ff" />
        <text x="60" y="35" text-anchor="middle" fill="white" font-size="16">进程 A</text>
    </g>
    
    <g transform="translate(50,150)">
        <rect x="0" y="0" width="120" height="60" rx="10" fill="#4d94ff" />
        <text x="60" y="35" text-anchor="middle" fill="white" font-size="16">进程 B</text>
    </g>
    
    <g transform="translate(50,250)">
        <rect x="0" y="0" width="120" height="60" rx="10" fill="#4d94ff" />
        <text x="60" y="35" text-anchor="middle" fill="white" font-size="16">进程 C</text>
    </g>

    <!-- SPOOL 管理程序 -->
    <g transform="translate(300,100)">
        <rect x="0" y="0" width="200" height="200" rx="10" fill="#ff9966" />
        <text x="100" y="40" text-anchor="middle" fill="white" font-size="18">SPOOL 管理程序</text>
        
        <!-- 缓冲队列示意 -->
        <rect x="30" y="70" width="140" height="100" fill="#ffcc99" rx="5"/>
        <text x="100" y="100" text-anchor="middle" fill="#666">输出缓冲队列</text>
        <path d="M50 120 H150" stroke="#666" stroke-width="2"/>
        <path d="M50 140 H150" stroke="#666" stroke-width="2"/>
        <path d="M50 160 H150" stroke="#666" stroke-width="2"/>
    </g>

    <!-- 打印机 -->
    <g transform="translate(650,150)">
        <rect x="0" y="0" width="100" height="100" rx="10" fill="#66cc66" />
        <text x="50" y="60" text-anchor="middle" fill="white" font-size="16">打印机</text>
    </g>

    <!-- 箭头和数据流 -->
    <!-- 从进程到SPOOL -->
    <path d="M170,80 C220,80 250,150 300,150" stroke="#666" stroke-width="2" marker-end="url(#arrowhead)"/>
    <path d="M170,180 H300" stroke="#666" stroke-width="2" marker-end="url(#arrowhead)"/>
    <path d="M170,280 C220,280 250,250 300,250" stroke="#666" stroke-width="2" marker-end="url(#arrowhead)"/>
    
    <!-- 从SPOOL到打印机 -->
    <path d="M500,200 H650" stroke="#666" stroke-width="2" marker-end="url(#arrowhead)"/>

    <!-- 箭头标记定义 -->
    <defs>
        <marker id="arrowhead" markerWidth="10" markerHeight="7" refX="9" refY="3.5" orient="auto">
            <polygon points="0 0, 10 3.5, 0 7" fill="#666"/>
        </marker>
    </defs>

    <!-- 说明文本 -->
    <text x="200" y="60" fill="#666" font-size="14">输出请求</text>
    <text x="550" y="180" fill="#666" font-size="14">实际打印</text>

    <!-- 水印 -->
    <text x="400" y="30" text-anchor="middle" fill="#666" font-size="16" opacity="0.5">偷偷星球</text>
    <text x="400" y="380" text-anchor="middle" fill="#666" font-size="16" opacity="0.5">偷偷星球</text>
</svg>
