<svg viewBox="0 0 800 600" xmlns="http://www.w3.org/2000/svg">
    <!-- 背景 -->
    <rect width="800" height="600" fill="#f8f9fa"/>
    
    <!-- 顶部显著水印 -->
    <text x="400" y="40" font-size="36" fill="#666666" opacity="0.8" text-anchor="middle" font-weight="bold">偷偷星球</text>
    
    <!-- 对角线水印 -->
    <text x="400" y="300" font-size="60" fill="#cccccc" opacity="0.2" text-anchor="middle" transform="rotate(-45, 400, 300)">偷偷星球</text>
    
    <!-- 输入任务区域 -->
    <rect x="50" y="100" width="150" height="100" rx="10" fill="#ffb6c1"/>
    <text x="125" y="150" text-anchor="middle" fill="#444">输入任务</text>
    
    <!-- 临时存储区域（磁盘缓冲区） -->
    <rect x="300" y="50" width="200" height="400" rx="10" fill="#b0e0e6"/>
    <text x="400" y="80" text-anchor="middle" fill="#444" font-weight="bold">SPOOLing缓冲区</text>
    
    <!-- 任务队列可视化 -->
    <rect x="320" y="100" width="160" height="40" fill="#fff" stroke="#666"/>
    <rect x="320" y="150" width="160" height="40" fill="#fff" stroke="#666"/>
    <rect x="320" y="200" width="160" height="40" fill="#fff" stroke="#666"/>
    <text x="400" y="125" text-anchor="middle" fill="#666">任务1</text>
    <text x="400" y="175" text-anchor="middle" fill="#666">任务2</text>
    <text x="400" y="225" text-anchor="middle" fill="#666">任务3</text>
    
    <!-- 输出设备（打印机） -->
    <rect x="600" y="100" width="150" height="100" rx="10" fill="#98fb98"/>
    <text x="675" y="150" text-anchor="middle" fill="#444">输出设备</text>
    <text x="675" y="170" text-anchor="middle" fill="#444">（打印机等）</text>
    
    <!-- 箭头和数据流 -->
    <!-- 输入到缓冲区 -->
    <path d="M 200,150 L 300,150" fill="none" stroke="#666" stroke-width="2" marker-end="url(#arrowhead)"/>
    <text x="250" y="130" fill="#666" font-size="12">1. 任务提交</text>
    
    <!-- 缓冲区到输出设备 -->
    <path d="M 500,150 L 600,150" fill="none" stroke="#666" stroke-width="2" marker-end="url(#arrowhead)"/>
    <text x="550" y="130" fill="#666" font-size="12">3. 任务执行</text>
    
    <!-- 队列循环箭头 -->
    <path d="M 400,250 Q 400,300 320,300 Q 240,300 240,200 Q 240,150 300,150" fill="none" stroke="#666" stroke-width="2" stroke-dasharray="5,5" marker-end="url(#arrowhead)"/>
    <text x="270" y="280" fill="#666" font-size="12">2. 任务排队</text>
    
    <!-- 箭头定义 -->
    <defs>
        <marker id="arrowhead" markerWidth="10" markerHeight="7" refX="9" refY="3.5" orient="auto">
            <polygon points="0 0, 10 3.5, 0 7" fill="#666"/>
        </marker>
    </defs>
    
    <!-- 说明框 -->
    <rect x="50" y="400" width="700" height="150" rx="10" fill="white" stroke="#ddd"/>
    <text x="70" y="430" fill="#444" font-size="14" font-weight="bold">SPOOLing工作流程说明：</text>
    <text x="70" y="460" fill="#666" font-size="12">1. 任务提交：系统接收新任务并将其存入SPOOLing缓冲区</text>
    <text x="70" y="490" fill="#666" font-size="12">2. 任务排队：多个任务在缓冲区中排队等待处理</text>
    <text x="70" y="520" fill="#666" font-size="12">3. 任务执行：外围设备依次处理排队任务，完成后从队列中移除</text>
</svg>
