<svg xmlns="http://www.w3.org/2000/svg" viewBox="0 0 800 600">
  <!-- Background -->
  <rect width="800" height="600" fill="#f0f0f0"/>
  
  <!-- Watermark -->
  <text x="400" y="300" text-anchor="middle" font-size="100" opacity="0.1" fill="gray" font-weight="bold">
    偷偷星球
  </text>
  
  <!-- 1. One-to-One Model -->
  <g transform="translate(50, 50)">
    <rect width="200" height="250" fill="white" stroke="black" rx="10"/>
    <text x="100" y="30" text-anchor="middle" font-weight="bold">一对一模型</text>
    
    <!-- User Threads -->
    <circle cx="50" cy="100" r="20" fill="#4CAF50"/>
    <circle cx="50" cy="170" r="20" fill="#4CAF50"/>
    
    <!-- Kernel Threads -->
    <circle cx="150" cy="100" r="20" fill="#2196F3"/>
    <circle cx="150" cy="170" r="20" fill="#2196F3"/>
    
    <!-- Connecting Lines -->
    <line x1="70" y1="100" x2="130" y2="100" stroke="black" stroke-dasharray="5,5"/>
    <line x1="70" y1="170" x2="130" y2="170" stroke="black" stroke-dasharray="5,5"/>
    
    <text x="100" y="230" text-anchor="middle" font-size="12">每个用户线程 = 内核线程</text>
  </g>
  
  <!-- 2. Many-to-One Model -->
  <g transform="translate(300, 50)">
    <rect width="200" height="250" fill="white" stroke="black" rx="10"/>
    <text x="100" y="30" text-anchor="middle" font-weight="bold">多对一模型</text>
    
    <!-- User Threads -->
    <circle cx="50" cy="80" r="20" fill="#4CAF50"/>
    <circle cx="50" cy="140" r="20" fill="#4CAF50"/>
    <circle cx="50" cy="200" r="20" fill="#4CAF50"/>
    
    <!-- Kernel Thread -->
    <circle cx="150" cy="140" r="20" fill="#2196F3"/>
    
    <!-- Connecting Lines -->
    <line x1="70" y1="80" x2="130" y2="140" stroke="black" stroke-dasharray="5,5"/>
    <line x1="70" y1="140" x2="130" y2="140" stroke="black" stroke-dasharray="5,5"/>
    <line x1="70" y1="200" x2="130" y2="140" stroke="black" stroke-dasharray="5,5"/>
    
    <text x="100" y="230" text-anchor="middle" font-size="12">多个用户线程 = 1个内核线程</text>
  </g>
  
  <!-- 3. Many-to-Many Model -->
  <g transform="translate(50, 330)">
    <rect width="200" height="250" fill="white" stroke="black" rx="10"/>
    <text x="100" y="30" text-anchor="middle" font-weight="bold">多对多模型</text>
    
    <!-- User Threads -->
    <circle cx="50" cy="80" r="20" fill="#4CAF50"/>
    <circle cx="50" cy="140" r="20" fill="#4CAF50"/>
    <circle cx="50" cy="200" r="20" fill="#4CAF50"/>
    
    <!-- Kernel Threads -->
    <circle cx="150" cy="80" r="20" fill="#2196F3"/>
    <circle cx="150" cy="140" r="20" fill="#2196F3"/>
    <circle cx="150" cy="200" r="20" fill="#2196F3"/>
    
    <!-- Connecting Lines -->
    <line x1="70" y1="80" x2="130" y2="140" stroke="black" stroke-dasharray="5,5"/>
    <line x1="70" y1="140" x2="130" y2="80" stroke="black" stroke-dasharray="5,5"/>
    <line x1="70" y1="200" x2="130" y2="140" stroke="black" stroke-dasharray="5,5"/>
    
    <text x="100" y="230" text-anchor="middle" font-size="12">多个用户线程 ↔ 多个内核线程</text>
  </g>
  
  <!-- 4. Two-Level Model -->
  <g transform="translate(300, 330)">
    <rect width="200" height="250" fill="white" stroke="black" rx="10"/>
    <text x="100" y="30" text-anchor="middle" font-weight="bold">二级模型</text>
    
    <!-- User Threads -->
    <circle cx="50" cy="80" r="20" fill="#4CAF50"/>
    <circle cx="50" cy="140" r="20" fill="#4CAF50"/>
    <circle cx="50" cy="200" r="20" fill="#4CAF50"/>
    
    <!-- Kernel Threads -->
    <circle cx="150" cy="80" r="20" fill="#2196F3"/>
    <circle cx="150" cy="140" r="20" fill="#2196F3"/>
    <circle cx="150" cy="200" r="20" fill="#2196F3"/>
    
    <!-- Flexible Connecting Lines -->
    <line x1="70" y1="80" x2="130" y2="140" stroke="black" stroke-dasharray="5,5"/>
    <line x1="70" y1="140" x2="130" y2="80" stroke="black" stroke-dasharray="5,5"/>
    <line x1="70" y1="200" x2="130" y2="200" stroke="black" stroke-dasharray="5,5"/>
    
    <text x="100" y="230" text-anchor="middle" font-size="12">灵活的线程映射</text>
  </g>
  
  <!-- Legend -->
  <g transform="translate(550, 330)">
    <text x="0" y="0" font-weight="bold">图例:</text>
    <circle cx="20" cy="40" r="10" fill="#4CAF50"/>
    <text x="40" y="45" font-size="12">用户线程</text>
    
    <circle cx="20" cy="80" r="10" fill="#2196F3"/>
    <text x="40" y="85" font-size="12">内核线程</text>
    
    <line x1="10" y1="110" x2="30" y2="110" stroke="black" stroke-dasharray="5,5"/>
    <text x="40" y="115" font-size="12">线程映射关系</text>
  </g>
</svg>
